<?xml version="1.0" encoding="UTF-8"?> <svg xmlns="http://www.w3.org/2000/svg" width="32" height="32" viewBox="0 0 32 32" fill="none"> <circle cx="16" cy="16" r="16" fill="black"></circle> <g clip-path="url(#clip0_465_9118)"> <path d="M20.7143 15.395C21.9244 15.395 23 14.8571 23.6723 13.916L22.7311 13.2437C22.1933 13.916 21.521 14.1849 20.7143 14.1849C19.3697 14.1849 18.2941 13.1092 18.2941 11.6303C18.2941 10.2857 19.2353 9.07563 20.7143 9.07563C21.3866 9.07563 21.7899 9.21008 22.1933 9.47899V10.6891H23.4034V8.94118L23.1345 8.80672C22.5966 8.26891 21.6555 8 20.7143 8C18.6975 8 17.084 9.61345 17.084 11.6303C17.084 13.7815 18.6975 15.395 20.7143 15.395ZM23.2689 22.6555V20.9076V16.874H20.8487V18.084H22.0588V20.9076C22.0588 22.1176 21.1176 22.9244 20.1765 22.9244C19.2353 22.9244 18.6975 22.2521 18.6975 21.042V16.874H16.2773V18.084H17.3529V21.3109C17.3529 22.9244 18.2941 24.1345 19.9076 24.1345C20.8487 24.1345 21.521 23.5966 22.0588 22.7899L22.1933 23.8655H24.0756V22.6555H23.2689ZM16.8151 8.13445H14.7983L12.916 13.3782L11.1681 8.13445H8.88235V9.34454H10.0924L12.2437 15.2605H13.3193L15.605 9.34454H16.8151V8.13445ZM7 23.8655H8.21008V22.6555H7V23.8655ZM11.7059 18.2185L11.5714 16.874H9.42017V17.9496H10.6303V22.6555H9.42017V23.8655H14.7983V22.7899H11.8403V19.8319C11.9748 18.7563 12.7815 17.8151 13.8571 17.8151V18.8908H15.0672V16.7395H14.1261C13.0504 16.7395 12.2437 17.4118 11.7059 18.2185Z" fill="white"></path> </g> <defs> <clipPath id="clip0_465_9118"> <rect width="17.2101" height="16" fill="white" transform="translate(7 8)"></rect> </clipPath> </defs> </svg> 