<?xml version="1.0" encoding="UTF-8"?> <svg xmlns="http://www.w3.org/2000/svg" width="144" height="26" viewBox="0 0 144 26" fill="none"> <path d="M36.2344 19.8535H39.2129V9.73633H36.2344V19.8535ZM36 6.83594C36 7.28516 36.1465 7.66276 36.4395 7.96875C36.7389 8.27474 37.1654 8.42773 37.7188 8.42773C38.2721 8.42773 38.6986 8.27474 38.998 7.96875C39.2975 7.66276 39.4473 7.28516 39.4473 6.83594C39.4473 6.39323 39.2975 6.02214 38.998 5.72266C38.7051 5.41667 38.2819 5.26367 37.7285 5.26367C37.1686 5.26367 36.7389 5.41667 36.4395 5.72266C36.1465 6.02214 36 6.39323 36 6.83594Z" fill="black"></path> <path d="M41.6445 19.8535H44.6133V13.1152C44.7891 12.6986 45.0495 12.373 45.3945 12.1387C45.7461 11.9043 46.1237 11.7871 46.5273 11.7871C47.0221 11.7871 47.403 11.9141 47.6699 12.168C47.9368 12.4219 48.0703 12.8613 48.0703 13.4863V19.8535H51.0391V13.4766C51.0391 12.0182 50.7103 10.9961 50.0527 10.4102C49.3952 9.81771 48.5488 9.52148 47.5137 9.52148C46.8626 9.52148 46.2767 9.65169 45.7559 9.91211C45.235 10.166 44.8444 10.498 44.584 10.9082H44.5352L44.4766 9.73633H41.6445V19.8535Z" fill="black"></path> <path d="M52.0059 9.73633L55.8633 19.8535H58.5684L62.4062 9.73633H59.7402L57.6797 15.6152C57.6081 15.8496 57.5495 16.0645 57.5039 16.2598C57.4583 16.4551 57.4225 16.6406 57.3965 16.8164H57.3379C57.3118 16.6406 57.276 16.4551 57.2305 16.2598C57.1849 16.0645 57.123 15.8496 57.0449 15.6152L54.9941 9.73633H52.0059Z" fill="black"></path> <path d="M62.7871 14.9414C62.7871 16.5104 63.2591 17.7702 64.2031 18.7207C65.1471 19.6712 66.4492 20.1465 68.1094 20.1465C69.1901 20.1465 70.1146 19.9382 70.8828 19.5215C71.651 19.1048 72.1979 18.5742 72.5234 17.9297L70.375 16.6797C70.1406 17.0247 69.8281 17.3275 69.4375 17.5879C69.0534 17.8418 68.5944 17.9688 68.0605 17.9688C67.2988 17.9688 66.7194 17.7116 66.3223 17.1973C65.9316 16.6764 65.7363 15.9701 65.7363 15.0781V14.4434C65.7363 13.5645 65.9186 12.8646 66.2832 12.3438C66.6478 11.8229 67.1784 11.5625 67.875 11.5625C68.487 11.5625 68.9557 11.7513 69.2812 12.1289C69.6068 12.5 69.7695 12.959 69.7695 13.5059V13.7012H64.7402V15.4883H72.6895V14.4629C72.6895 12.9004 72.263 11.6732 71.4102 10.7812C70.5638 9.88932 69.3887 9.44336 67.8848 9.44336C66.3939 9.44336 65.1699 9.91862 64.2129 10.8691C63.2624 11.8132 62.7871 13.0664 62.7871 14.6289V14.9414Z" fill="black"></path> <path d="M73.8516 16.6504V16.7676C73.8581 17.8483 74.265 18.6816 75.0723 19.2676C75.8796 19.847 77.0254 20.1367 78.5098 20.1367C80.0007 20.1367 81.1335 19.847 81.9082 19.2676C82.6895 18.6816 83.0801 17.8646 83.0801 16.8164C83.0801 15.944 82.7969 15.2604 82.2305 14.7656C81.6706 14.2708 80.7852 13.9062 79.5742 13.6719C78.4805 13.444 77.7806 13.2454 77.4746 13.0762C77.1751 12.9069 77.0254 12.6758 77.0254 12.3828C77.0254 12.0898 77.1393 11.8587 77.3672 11.6895C77.6016 11.5137 77.9759 11.4258 78.4902 11.4258C79.0111 11.4258 79.3984 11.5332 79.6523 11.748C79.9128 11.9629 80.043 12.2656 80.043 12.6562V12.8223H82.8945V12.6953C82.8945 11.6862 82.4974 10.8919 81.7031 10.3125C80.9089 9.73307 79.8444 9.44336 78.5098 9.44336C77.1686 9.44336 76.1042 9.72331 75.3164 10.2832C74.5352 10.8366 74.1445 11.6016 74.1445 12.5781C74.1445 13.3984 74.4212 14.0658 74.9746 14.5801C75.528 15.0879 76.4069 15.4655 77.6113 15.7129C78.6986 15.9342 79.3919 16.1296 79.6914 16.2988C79.9909 16.4616 80.1406 16.7155 80.1406 17.0605C80.1406 17.3991 80.0007 17.6693 79.7207 17.8711C79.4408 18.0729 79.0273 18.1738 78.4805 18.1738C77.9401 18.1738 77.5104 18.0697 77.1914 17.8613C76.8724 17.6465 76.7129 17.3014 76.7129 16.8262V16.6699L73.8516 16.6504Z" fill="black"></path> <path d="M83.7832 11.8848H90.1602V9.73633H83.7832V11.8848ZM85.2969 16.8164C85.2969 17.9622 85.5833 18.8021 86.1562 19.3359C86.7357 19.8633 87.5104 20.127 88.4805 20.127C88.8385 20.127 89.1608 20.0977 89.4473 20.0391C89.7402 19.9805 89.9648 19.9121 90.1211 19.834V17.7344C89.9844 17.793 89.8411 17.8418 89.6914 17.8809C89.5417 17.9134 89.3887 17.9297 89.2324 17.9297C88.9134 17.9297 88.666 17.8418 88.4902 17.666C88.321 17.4837 88.2363 17.1452 88.2363 16.6504V7.22656H85.3164V10.4785L85.2969 10.7422V16.8164Z" fill="black"></path> <path d="M96.0195 16.6504V16.7676C96.026 17.8483 96.4329 18.6816 97.2402 19.2676C98.0475 19.847 99.1934 20.1367 100.678 20.1367C102.169 20.1367 103.301 19.847 104.076 19.2676C104.857 18.6816 105.248 17.8646 105.248 16.8164C105.248 15.944 104.965 15.2604 104.398 14.7656C103.839 14.2708 102.953 13.9062 101.742 13.6719C100.648 13.444 99.9486 13.2454 99.6426 13.0762C99.3431 12.9069 99.1934 12.6758 99.1934 12.3828C99.1934 12.0898 99.3073 11.8587 99.5352 11.6895C99.7695 11.5137 100.144 11.4258 100.658 11.4258C101.179 11.4258 101.566 11.5332 101.82 11.748C102.081 11.9629 102.211 12.2656 102.211 12.6562V12.8223H105.062V12.6953C105.062 11.6862 104.665 10.8919 103.871 10.3125C103.077 9.73307 102.012 9.44336 100.678 9.44336C99.3366 9.44336 98.2721 9.72331 97.4844 10.2832C96.7031 10.8366 96.3125 11.6016 96.3125 12.5781C96.3125 13.3984 96.5892 14.0658 97.1426 14.5801C97.696 15.0879 98.5749 15.4655 99.7793 15.7129C100.867 15.9342 101.56 16.1296 101.859 16.2988C102.159 16.4616 102.309 16.7155 102.309 17.0605C102.309 17.3991 102.169 17.6693 101.889 17.8711C101.609 18.0729 101.195 18.1738 100.648 18.1738C100.108 18.1738 99.6784 18.0697 99.3594 17.8613C99.0404 17.6465 98.8809 17.3014 98.8809 16.8262V16.6699L96.0195 16.6504Z" fill="black"></path> <path d="M107.133 19.8535H110.102V16.7383L116.674 9.72656H113.402L110.102 13.3203V5H107.133V19.8535ZM113.627 19.8535H117.113L112.045 13.0371L110.17 15.127L113.627 19.8535Z" fill="black"></path> <path d="M118.09 19.8535H121.068V9.73633H118.09V19.8535ZM117.855 6.83594C117.855 7.28516 118.002 7.66276 118.295 7.96875C118.594 8.27474 119.021 8.42773 119.574 8.42773C120.128 8.42773 120.554 8.27474 120.854 7.96875C121.153 7.66276 121.303 7.28516 121.303 6.83594C121.303 6.39323 121.153 6.02214 120.854 5.72266C120.561 5.41667 120.137 5.26367 119.584 5.26367C119.024 5.26367 118.594 5.41667 118.295 5.72266C118.002 6.02214 117.855 6.39323 117.855 6.83594Z" fill="black"></path> <path d="M123.529 19.8535H126.498V5H123.529V19.8535Z" fill="black"></path> <path d="M128.959 19.8535H131.928V5H128.959V19.8535Z" fill="black"></path> <path d="M133.773 16.6504V16.7676C133.78 17.8483 134.187 18.6816 134.994 19.2676C135.801 19.847 136.947 20.1367 138.432 20.1367C139.923 20.1367 141.055 19.847 141.83 19.2676C142.611 18.6816 143.002 17.8646 143.002 16.8164C143.002 15.944 142.719 15.2604 142.152 14.7656C141.592 14.2708 140.707 13.9062 139.496 13.6719C138.402 13.444 137.702 13.2454 137.396 13.0762C137.097 12.9069 136.947 12.6758 136.947 12.3828C136.947 12.0898 137.061 11.8587 137.289 11.6895C137.523 11.5137 137.898 11.4258 138.412 11.4258C138.933 11.4258 139.32 11.5332 139.574 11.748C139.835 11.9629 139.965 12.2656 139.965 12.6562V12.8223H142.816V12.6953C142.816 11.6862 142.419 10.8919 141.625 10.3125C140.831 9.73307 139.766 9.44336 138.432 9.44336C137.09 9.44336 136.026 9.72331 135.238 10.2832C134.457 10.8366 134.066 11.6016 134.066 12.5781C134.066 13.3984 134.343 14.0658 134.896 14.5801C135.45 15.0879 136.329 15.4655 137.533 15.7129C138.62 15.9342 139.314 16.1296 139.613 16.2988C139.913 16.4616 140.062 16.7155 140.062 17.0605C140.062 17.3991 139.923 17.6693 139.643 17.8711C139.363 18.0729 138.949 18.1738 138.402 18.1738C137.862 18.1738 137.432 18.0697 137.113 17.8613C136.794 17.6465 136.635 17.3014 136.635 16.8262V16.6699L133.773 16.6504Z" fill="black"></path> <path d="M18.6245 16.678C18.6245 17.4041 18.5348 18.1302 18.3666 18.8395C18.3498 18.9095 18.3357 18.9824 18.3161 19.0525C18.3161 19.0553 18.3161 19.0581 18.3161 19.0609C17.9096 20.6028 17.1078 22.0522 15.8995 23.2633C14.9351 24.2277 13.8194 24.9314 12.6279 25.3827C12.6279 25.3827 12.6251 25.3827 12.6223 25.3855C11.5598 25.7864 10.4356 25.9883 9.31139 25.9883C7.00975 25.9883 4.71652 25.1416 2.92511 23.4511C2.86063 23.3895 2.79334 23.325 2.72886 23.2633C2.66719 23.1988 2.60271 23.1344 2.54104 23.0671C0.847745 21.2757 0.00390625 18.9824 0.00390625 16.6808C0.00390625 16.4341 0.015116 16.1874 0.0347402 15.9435C0.393584 16.4453 0.800076 16.9247 1.25143 17.376C2.72325 18.8507 4.50626 19.8375 6.39019 20.3337C6.39299 20.3337 6.39859 20.3365 6.4042 20.3365C7.00134 20.4935 7.60689 20.6028 8.21805 20.6617C8.3442 20.6729 8.47597 20.6813 8.60212 20.6925C8.83761 20.7066 9.07309 20.7122 9.30858 20.7122C9.31139 20.7122 9.31701 20.7122 9.31981 20.7122C9.96741 20.7122 10.6122 20.6561 11.2514 20.5468C11.8906 20.4374 12.5214 20.272 13.1381 20.0505C13.2166 20.0225 13.2951 19.9973 13.3736 19.9692C14.837 19.4142 16.2079 18.5451 17.3854 17.3704C17.8367 16.9191 18.2404 16.4397 18.5993 15.9351C18.6077 16.0388 18.6161 16.1453 18.6217 16.2519C18.6273 16.392 18.6301 16.5322 18.6301 16.6724L18.6245 16.678Z" fill="url(#paint0_linear_465_9099)"></path> <path d="M25.9928 9.30189C25.9928 9.54859 25.9816 9.79811 25.962 10.0448C25.6003 9.54299 25.1966 9.0636 24.7453 8.61224C23.2706 7.13762 21.4904 6.1508 19.6065 5.65459C19.6037 5.65459 19.5981 5.65178 19.5925 5.65178C18.8776 5.46115 18.1459 5.3434 17.4114 5.29575C17.1675 5.28173 16.9208 5.27331 16.6769 5.27331C16.5059 5.27331 16.3321 5.27612 16.161 5.28453C15.9368 5.29574 15.7125 5.31256 15.4882 5.33499C15.3368 5.34901 15.1882 5.36863 15.0397 5.39106C14.9668 5.40228 14.8911 5.41349 14.8182 5.42751C14.7845 5.43031 14.7509 5.43592 14.7201 5.44152C14.7117 5.44152 14.7061 5.44153 14.6976 5.44433C14.664 5.44994 14.6304 5.45554 14.5967 5.46396C14.5238 5.47797 14.4481 5.49199 14.3752 5.50601C14.3023 5.52002 14.2267 5.53965 14.1538 5.55647C14.1145 5.56488 14.0809 5.57329 14.0444 5.5817C14.0248 5.5873 14.0052 5.5901 13.9884 5.59571C13.9687 5.59851 13.9519 5.60413 13.9323 5.60973C13.8594 5.62655 13.7837 5.64617 13.7108 5.6658C13.6183 5.69103 13.5286 5.71626 13.4361 5.7415C13.4277 5.7443 13.4165 5.7471 13.4081 5.74991C13.3996 5.75271 13.394 5.75551 13.3856 5.75832C13.3828 5.75832 13.3772 5.75832 13.3716 5.76112C13.3716 5.76112 13.3688 5.76112 13.366 5.76112C13.352 5.76393 13.3324 5.76953 13.3155 5.77514C13.3071 5.77514 13.3015 5.77794 13.2959 5.78074C13.2875 5.78074 13.2819 5.78635 13.2735 5.78915C13.2286 5.80317 13.1866 5.81719 13.1417 5.83121C13.1025 5.84523 13.066 5.85643 13.0296 5.87045C13.024 5.87045 13.0156 5.87325 13.01 5.87606C12.9903 5.88166 12.9707 5.89008 12.9539 5.89568C12.9343 5.90129 12.9146 5.9097 12.8978 5.91531C12.8782 5.92092 12.8614 5.92933 12.8418 5.93494C12.7689 5.96017 12.6988 5.9854 12.6287 6.01343C11.1653 6.56852 9.79439 7.43759 8.61974 8.61224C8.16838 9.0636 7.76187 9.54299 7.40303 10.0448C7.39462 9.94108 7.38901 9.83735 7.3834 9.73362C7.37779 9.59345 7.375 9.45328 7.375 9.3131C7.375 9.21218 7.3834 9.11406 7.3834 9.01313C7.40303 8.37675 7.48995 7.73756 7.64133 7.11519C7.65535 7.05351 7.66655 6.99464 7.68337 6.93297C7.68337 6.93297 7.68337 6.93016 7.68337 6.92735C8.08988 5.38545 8.89167 3.93606 10.1 2.72497C11.0643 1.76058 12.1801 1.05691 13.3744 0.605549C14.4453 0.199047 15.5779 0 16.7161 0C19.0038 0 21.2886 0.849454 23.0772 2.53714C23.1417 2.59882 23.2062 2.66049 23.2706 2.72497C23.3351 2.78945 23.3968 2.85393 23.4613 2.92121C25.1518 4.71263 25.9956 7.00305 25.9984 9.30189H25.9928Z" fill="url(#paint1_linear_465_9099)"></path> <path d="M8.61504 17.3759C9.06639 17.8272 9.54578 18.2337 10.0476 18.5926C9.8037 18.6122 9.5598 18.6234 9.3159 18.6234C8.51691 18.6234 7.71513 18.5197 6.93857 18.315C6.93577 18.315 6.93296 18.315 6.93015 18.315C5.39105 17.9085 3.93886 17.1067 2.72776 15.8984C1.76337 14.934 1.0569 13.8183 0.60554 12.6268C0.201842 11.5615 0 10.4345 0 9.3075C0 7.00866 0.843839 4.71543 2.53713 2.92121C2.59881 2.85673 2.66328 2.79225 2.72776 2.72777C2.78944 2.66329 2.85672 2.60162 2.9212 2.53714C4.71542 0.843847 7.00865 0 9.3131 0C9.5598 0 9.8037 0.011214 10.0504 0.0308383C10.0392 0.0392486 10.028 0.0448588 10.0168 0.0560727C9.52616 0.409309 9.05798 0.807401 8.61504 1.24754C7.14041 2.72217 6.15079 4.50516 5.65739 6.38629C5.65739 6.38909 5.65458 6.3947 5.65177 6.3975C5.39946 7.35348 5.27612 8.3347 5.27612 9.31591C5.27612 10.6896 5.52281 12.0633 6.01903 13.3669C6.57411 14.8303 7.44039 16.204 8.61784 17.3787L8.61504 17.3759Z" fill="url(#paint2_linear_465_9099)"></path> <path d="M25.9935 16.6835C25.9935 18.9823 25.1497 21.2755 23.4564 23.0697C23.3947 23.1342 23.3302 23.1987 23.2658 23.2632C23.2013 23.3277 23.1368 23.3893 23.0723 23.4538C21.2781 25.1471 18.9877 25.9909 16.686 25.9909C16.4393 25.9909 16.1898 25.9797 15.9459 25.9601C16.4477 25.6013 16.9271 25.1948 17.3785 24.7462C18.8503 23.2716 19.8399 21.4914 20.3361 19.6075C20.3361 19.6019 20.3389 19.5991 20.3389 19.5935C20.4343 19.2346 20.51 18.873 20.5688 18.5085C20.6081 18.2674 20.6389 18.0235 20.6641 17.7796C20.6978 17.4124 20.7174 17.0451 20.7174 16.6779C20.7174 15.3014 20.4707 13.9277 19.9745 12.6212C19.697 11.8895 19.3409 11.1831 18.9064 10.5074C18.4746 9.83459 17.9616 9.20101 17.3757 8.61228C16.9243 8.15812 16.4421 7.75442 15.9375 7.39277C16.0412 7.38436 16.1478 7.37876 16.2543 7.37316C16.3945 7.36755 16.5346 7.36475 16.6748 7.36475C16.8739 7.36475 17.0757 7.37035 17.2776 7.38436C17.8747 7.42361 18.469 7.51893 19.0549 7.67312C19.0549 7.67312 19.0578 7.67312 19.0634 7.67312C20.6025 8.07962 22.0547 8.88142 23.2658 10.0897C24.2301 11.0541 24.9338 12.1699 25.388 13.3613C25.7917 14.4267 25.9935 15.5537 25.9935 16.6806V16.6835Z" fill="url(#paint3_linear_465_9099)"></path> <defs> <linearGradient id="paint0_linear_465_9099" x1="0.0039061" y1="21.0734" x2="19.7281" y2="21.0734" gradientUnits="userSpaceOnUse"> <stop stop-color="#FF6700"></stop> <stop offset="1" stop-color="#FE9100"></stop> </linearGradient> <linearGradient id="paint1_linear_465_9099" x1="7.375" y1="5.13402" x2="27.0963" y2="5.13402" gradientUnits="userSpaceOnUse"> <stop stop-color="#FF6700"></stop> <stop offset="1" stop-color="#FE9100"></stop> </linearGradient> <linearGradient id="paint2_linear_465_9099" x1="-8.16669e-08" y1="9.51863" x2="10.6429" y2="9.51863" gradientUnits="userSpaceOnUse"> <stop stop-color="#FF6700"></stop> <stop offset="1" stop-color="#FE9100"></stop> </linearGradient> <linearGradient id="paint3_linear_465_9099" x1="15.9375" y1="16.8848" x2="26.5863" y2="16.8848" gradientUnits="userSpaceOnUse"> <stop stop-color="#FF6700"></stop> <stop offset="1" stop-color="#FE9100"></stop> </linearGradient> </defs> </svg> 