<?xml version="1.0" encoding="UTF-8"?> <svg xmlns="http://www.w3.org/2000/svg" width="429" height="61" viewBox="0 0 429 61" fill="none"> <path d="M0.939673 59.5518H12.8814V18.9892H0.939673V59.5518ZM0 7.36077C0 9.16181 0.587296 10.6757 1.76189 11.9025C2.96258 13.1293 4.67226 13.7427 6.89094 13.7427C9.10961 13.7427 10.8193 13.1293 12.02 11.9025C13.2207 10.6757 13.821 9.16181 13.821 7.36077C13.821 5.58584 13.2207 4.09802 12.02 2.89733C10.8454 1.67053 9.14876 1.05713 6.93009 1.05713C4.68532 1.05713 2.96258 1.67053 1.76189 2.89733C0.587296 4.09802 0 5.58584 0 7.36077Z" fill="black"></path> <path d="M22.6305 59.5518H34.533V32.5362C35.2377 30.8657 36.2818 29.5606 37.6652 28.6209C39.0747 27.6812 40.5887 27.2114 42.207 27.2114C44.1907 27.2114 45.7177 27.7204 46.7879 28.7383C47.8581 29.7563 48.3932 31.5182 48.3932 34.024V59.5518H60.2957V33.9848C60.2957 28.138 58.9775 24.04 56.3412 21.6908C53.7049 19.3155 50.3117 18.1279 46.1614 18.1279C43.5512 18.1279 41.2021 18.6499 39.1139 19.694C37.0257 20.712 35.4596 22.0432 34.4155 23.6876H34.2198L33.9848 18.9892H22.6305V59.5518Z" fill="black"></path> <path d="M64.1719 18.9892L79.6373 59.5518H90.4827L105.87 18.9892H95.1811L86.9198 42.5594C86.6327 43.499 86.3977 44.3604 86.215 45.1435C86.0323 45.9265 85.8887 46.6704 85.7843 47.3752H85.5494C85.445 46.6704 85.3014 45.9265 85.1187 45.1435C84.936 44.3604 84.6881 43.499 84.3748 42.5594L76.1527 18.9892H64.1719Z" fill="black"></path> <path d="M107.397 39.8578C107.397 46.1484 109.289 51.1991 113.074 55.01C116.859 58.8209 122.079 60.7264 128.735 60.7264C133.068 60.7264 136.775 59.8911 139.855 58.2206C142.935 56.5501 145.127 54.4227 146.432 51.8386L137.819 46.8271C136.879 48.2105 135.626 49.4242 134.06 50.4683C132.52 51.4863 130.68 51.9953 128.539 51.9953C125.486 51.9953 123.162 50.9642 121.57 48.9022C120.004 46.814 119.221 43.9819 119.221 40.406V37.861C119.221 34.3372 119.952 31.5313 121.414 29.4431C122.875 27.3549 125.003 26.3109 127.796 26.3109C130.249 26.3109 132.129 27.0678 133.434 28.5817C134.739 30.0695 135.391 31.9097 135.391 34.1023V34.8854H115.227V42.0504H147.098V37.9393C147.098 31.6748 145.388 26.7546 141.969 23.1786C138.576 19.6026 133.864 17.8146 127.835 17.8146C121.857 17.8146 116.95 19.7201 113.113 23.531C109.302 27.3158 107.397 32.3404 107.397 38.6049V39.8578Z" fill="black"></path> <path d="M151.757 46.7096V47.1794C151.783 51.5124 153.415 54.8534 156.651 57.2026C159.888 59.5257 164.482 60.6872 170.433 60.6872C176.411 60.6872 180.952 59.5257 184.059 57.2026C187.191 54.8534 188.757 51.5776 188.757 47.3752C188.757 43.8775 187.621 41.1368 185.351 39.1531C183.106 37.1693 179.556 35.7076 174.701 34.7679C170.316 33.8543 167.51 33.0582 166.283 32.3796C165.082 31.7009 164.482 30.7743 164.482 29.5997C164.482 28.4251 164.939 27.4985 165.852 26.8198C166.792 26.1151 168.293 25.7627 170.355 25.7627C172.443 25.7627 173.996 26.1934 175.014 27.0548C176.058 27.9161 176.58 29.1299 176.58 30.696V31.3616H188.013V30.8526C188.013 26.8068 186.421 23.6223 183.236 21.2993C180.052 18.9762 175.784 17.8146 170.433 17.8146C165.056 17.8146 160.789 18.937 157.63 21.1818C154.498 23.4005 152.932 26.4675 152.932 30.3828C152.932 33.6716 154.041 36.3471 156.26 38.4091C158.479 40.4451 162.002 41.959 166.831 42.9509C171.19 43.8384 173.97 44.6214 175.171 45.3001C176.371 45.9526 176.972 46.9706 176.972 48.354C176.972 49.7113 176.411 50.7946 175.288 51.6037C174.166 52.4129 172.508 52.8175 170.316 52.8175C168.149 52.8175 166.427 52.3998 165.148 51.5646C163.869 50.7032 163.229 49.3198 163.229 47.4143V46.7879L151.757 46.7096Z" fill="black"></path> <path d="M191.576 27.6029H217.143V18.9892H191.576V27.6029ZM197.645 47.3752C197.645 51.9692 198.793 55.3363 201.09 57.4767C203.413 59.5909 206.519 60.6481 210.409 60.6481C211.844 60.6481 213.136 60.5306 214.285 60.2957C215.459 60.0608 216.36 59.7867 216.986 59.4735V51.0556C216.438 51.2905 215.864 51.4863 215.263 51.6429C214.663 51.7734 214.05 51.8386 213.423 51.8386C212.144 51.8386 211.152 51.4863 210.448 50.7815C209.769 50.0507 209.43 48.6933 209.43 46.7096V8.9269H197.723V21.9649L197.645 23.022V47.3752Z" fill="black"></path> <path d="M240.635 46.7096V47.1794C240.661 51.5124 242.292 54.8534 245.529 57.2026C248.765 59.5257 253.359 60.6872 259.311 60.6872C265.288 60.6872 269.83 59.5257 272.936 57.2026C276.068 54.8534 277.634 51.5776 277.634 47.3752C277.634 43.8775 276.499 41.1368 274.228 39.1531C271.983 37.1693 268.433 35.7076 263.578 34.7679C259.193 33.8543 256.387 33.0582 255.16 32.3796C253.96 31.7009 253.359 30.7743 253.359 29.5997C253.359 28.4251 253.816 27.4985 254.73 26.8198C255.669 26.1151 257.17 25.7627 259.232 25.7627C261.321 25.7627 262.874 26.1934 263.892 27.0548C264.936 27.9161 265.458 29.1299 265.458 30.696V31.3616H276.89V30.8526C276.89 26.8068 275.298 23.6223 272.114 21.2993C268.929 18.9762 264.662 17.8146 259.311 17.8146C253.934 17.8146 249.666 18.937 246.508 21.1818C243.375 23.4005 241.809 26.4675 241.809 30.3828C241.809 33.6716 242.919 36.3471 245.137 38.4091C247.356 40.4451 250.88 41.959 255.709 42.9509C260.068 43.8384 262.848 44.6214 264.048 45.3001C265.249 45.9526 265.849 46.9706 265.849 48.354C265.849 49.7113 265.288 50.7946 264.166 51.6037C263.043 52.4129 261.386 52.8175 259.193 52.8175C257.027 52.8175 255.304 52.3998 254.025 51.5646C252.746 50.7032 252.107 49.3198 252.107 47.4143V46.7879L240.635 46.7096Z" fill="black"></path> <path d="M285.191 59.5518H297.093V47.062L323.443 18.9501H310.327L297.093 33.3584V0H285.191V59.5518ZM311.228 59.5518H325.205L304.885 32.223L297.367 40.6017L311.228 59.5518Z" fill="black"></path> <path d="M329.121 59.5518H341.062V18.9892H329.121V59.5518ZM328.181 7.36077C328.181 9.16181 328.768 10.6757 329.943 11.9025C331.143 13.1293 332.853 13.7427 335.072 13.7427C337.29 13.7427 339 13.1293 340.201 11.9025C341.402 10.6757 342.002 9.16181 342.002 7.36077C342.002 5.58584 341.402 4.09802 340.201 2.89733C339.026 1.67053 337.33 1.05713 335.111 1.05713C332.866 1.05713 331.143 1.67053 329.943 2.89733C328.768 4.09802 328.181 5.58584 328.181 7.36077Z" fill="black"></path> <path d="M350.929 59.5518H362.831V0H350.929V59.5518Z" fill="black"></path> <path d="M372.698 59.5518H384.6V0H372.698V59.5518Z" fill="black"></path> <path d="M392 46.7096V47.1794C392.026 51.5124 393.658 54.8534 396.894 57.2026C400.131 59.5257 404.725 60.6872 410.676 60.6872C416.654 60.6872 421.195 59.5257 424.302 57.2026C427.434 54.8534 429 51.5776 429 47.3752C429 43.8775 427.865 41.1368 425.594 39.1531C423.349 37.1693 419.799 35.7076 414.944 34.7679C410.559 33.8543 407.753 33.0582 406.526 32.3796C405.325 31.7009 404.725 30.7743 404.725 29.5997C404.725 28.4251 405.182 27.4985 406.095 26.8198C407.035 26.1151 408.536 25.7627 410.598 25.7627C412.686 25.7627 414.239 26.1934 415.257 27.0548C416.301 27.9161 416.823 29.1299 416.823 30.696V31.3616H428.256V30.8526C428.256 26.8068 426.664 23.6223 423.479 21.2993C420.295 18.9762 416.027 17.8146 410.676 17.8146C405.299 17.8146 401.032 18.937 397.873 21.1818C394.741 23.4005 393.175 26.4675 393.175 30.3828C393.175 33.6716 394.284 36.3471 396.503 38.4091C398.722 40.4451 402.245 41.959 407.074 42.9509C411.433 43.8384 414.213 44.6214 415.414 45.3001C416.615 45.9526 417.215 46.9706 417.215 48.354C417.215 49.7113 416.654 50.7946 415.531 51.6037C414.409 52.4129 412.751 52.8175 410.559 52.8175C408.392 52.8175 406.67 52.3998 405.391 51.5646C404.112 50.7032 403.472 49.3198 403.472 47.4143V46.7879L392 46.7096Z" fill="black"></path> </svg> 