<?xml version="1.0" encoding="UTF-8"?> <svg xmlns="http://www.w3.org/2000/svg" width="41" height="75" viewBox="0 0 41 75" fill="none"> <path d="M40.4914 37.5225C40.4914 46.779 37.0936 56.0129 30.2754 63.2375C30.0271 63.4971 29.7675 63.7567 29.5078 64.0164C29.2482 64.276 28.9886 64.5243 28.7289 64.784C21.5044 71.6021 12.2818 74.9999 3.01405 74.9999C2.02067 74.9999 1.01599 74.9548 0.0338982 74.8758C2.05452 73.4308 3.98481 71.7941 5.80224 69.9879C11.7286 64.0502 15.7134 56.8821 17.7115 49.2963C17.7115 49.2737 17.7228 49.2625 17.7228 49.2399C18.1066 47.795 18.4114 46.3388 18.6484 44.8713C18.8065 43.9005 18.9306 42.9184 19.0322 41.9363C19.1676 40.4575 19.2467 38.9788 19.2467 37.5C19.2467 31.9574 18.2533 26.4261 16.2553 21.1657C15.1377 18.2194 13.7041 15.3748 11.9544 12.6543C10.216 9.94505 8.15021 7.39386 5.79094 5.02331C3.97351 3.19459 2.03191 1.56906 0 0.112856C0.41767 0.0789911 0.846633 0.0564405 1.27559 0.0338637C1.84001 0.011287 2.40443 0 2.96885 0C3.77032 0 4.58311 0.0225506 5.39588 0.0789924C7.8003 0.23703 10.1934 0.620833 12.5527 1.24169C12.5527 1.24169 12.564 1.24169 12.5866 1.24169C18.7839 2.87851 24.6312 6.10701 29.5078 10.9723C33.391 14.8555 36.2244 19.3483 38.0531 24.1458C39.6787 28.4354 40.4914 32.9733 40.4914 37.5112V37.5225Z" fill="url(#paint0_linear_473_1050)"></path> <defs> <linearGradient id="paint0_linear_473_1050" x1="-3.29022e-07" y1="38.3333" x2="42.8784" y2="38.3333" gradientUnits="userSpaceOnUse"> <stop stop-color="#FF6700"></stop> <stop offset="1" stop-color="#FE9100"></stop> </linearGradient> </defs> </svg> 