<svg width="80" height="80" viewBox="0 0 80 80" fill="none" xmlns="http://www.w3.org/2000/svg">
    <path fill-rule="evenodd" clip-rule="evenodd"
          d="M80 40C80 62.091 62.092 80 40 80C17.908 80 0 62.091 0 40C0 17.909 17.908 0 40 0C62.092 0 80 17.909 80 40Z"
          fill="#ffdc2b"/>
    <path fill-rule="evenodd" clip-rule="evenodd"
          d="M50.9376 23.2945H29.0626C27.8816 23.2945 26.9156 22.3285 26.9156 21.1475C26.9156 19.9665 27.8816 19.0005 29.0626 19.0005H50.9376C52.1186 19.0005 53.0846 19.9665 53.0846 21.1475C53.0846 22.3285 52.1186 23.2945 50.9376 23.2945Z"
          stroke="#000" stroke-width="2" stroke-linecap="round" stroke-linejoin="round"/>
    <path
        d="M30.2852 23.4082C30.2852 23.4082 28.4182 29.9862 31.3692 33.8532C32.9242 35.8902 35.6202 38.2552 38.0852 39.4012C35.6202 40.5472 31.8932 42.6402 30.2502 46.7782C29.0812 49.7202 30.2852 56.4362 30.2852 56.4362"
        stroke="#000" stroke-width="2" stroke-linecap="round" stroke-linejoin="round"/>
    <path
        d="M49.7139 23.4082C49.7139 23.4082 51.5819 29.9862 48.6299 33.8532C47.0759 35.8902 44.3799 38.2552 41.9149 39.4012C44.3799 40.5472 48.1069 42.6402 49.7499 46.7782C50.9189 49.7202 49.7139 56.4362 49.7139 56.4362"
        stroke="#000" stroke-width="2" stroke-linecap="round" stroke-linejoin="round"/>
    <path fill-rule="evenodd" clip-rule="evenodd"
          d="M50.9376 60.9998H29.0626C27.8816 60.9998 26.9156 60.0338 26.9156 58.8528C26.9156 57.6718 27.8816 56.7058 29.0626 56.7058H50.9376C52.1186 56.7058 53.0846 57.6718 53.0846 58.8528C53.0846 60.0338 52.1186 60.9998 50.9376 60.9998Z"
          stroke="#000" stroke-width="2" stroke-linecap="round" stroke-linejoin="round"/>
</svg>
