<svg width="80" height="80" viewBox="0 0 80 80" fill="none" xmlns="http://www.w3.org/2000/svg">
    <path fill-rule="evenodd" clip-rule="evenodd"
          d="M80 40C80 62.091 62.091 80 40 80C17.908 80 0 62.091 0 40C0 17.909 17.908 0 40 0C62.091 0 80 17.909 80 40Z"
          fill="#ffdc2b"/>
    <path
        d="M47.6777 59.3168H20.3227L20.7697 55.2348C20.8587 51.8798 22.2877 50.7008 23.4497 50.1568C24.3437 49.7038 32.7527 46.5408 33.2887 46.2688C33.2887 46.2688 36.0827 47.6288 38.4657 47.6288C40.9417 47.6288 43.6427 46.2688 43.6427 46.2688C43.9677 46.4338 45.5337 47.1128 48.2187 48.1498"
        stroke="#000" stroke-width="2" stroke-linecap="round" stroke-linejoin="round"/>
    <path
        d="M46.7129 31.3608C46.2559 37.6448 41.5259 42.7688 37.9629 42.7688C34.2749 42.7688 29.7129 37.6408 29.2129 31.3608"
        stroke="#000" stroke-width="2" stroke-linecap="round" stroke-linejoin="round"/>
    <path fill-rule="evenodd" clip-rule="evenodd"
          d="M28.9482 30.4971C28.9482 30.4971 26.0012 24.0791 29.7822 21.1291C30.7792 20.3511 32.1232 19.8471 33.2672 19.8621C33.2672 19.8621 35.2882 16.2871 41.2872 17.7331C47.2862 19.1801 48.9792 26.3171 46.7132 30.9841C46.7132 30.9841 43.1592 27.0941 41.5002 27.4341L42.1802 29.2211C42.1802 29.2211 32.7772 26.6251 31.8842 27.0511C31.8842 27.0511 30.1822 30.2421 28.9482 30.4971Z"
          stroke="#000" stroke-width="2" stroke-linecap="round" stroke-linejoin="round"/>
    <path fill-rule="evenodd" clip-rule="evenodd"
          d="M46.4238 53.9849C46.4238 48.6519 51.2598 44.4529 56.7838 45.5269C60.1478 46.1819 62.8578 48.8929 63.5098 52.2569C64.5798 57.7809 60.3798 62.6109 55.0508 62.6109C53.8258 62.6109 50.9838 62.1249 48.8898 60.0449C46.7698 57.9389 46.4238 55.2889 46.4238 53.9849Z"
          stroke="#000" stroke-width="2" stroke-linecap="round" stroke-linejoin="round"/>
    <path d="M51.7188 53.6017L54.2798 56.8127L58.2528 51.8997" stroke="#000" stroke-width="2.224"
          stroke-linecap="round" stroke-linejoin="round"/>
</svg>
