<?xml version="1.0" encoding="UTF-8"?> <svg xmlns="http://www.w3.org/2000/svg" width="75" height="41" viewBox="0 0 75 41" fill="none"> <path d="M74.9783 2.99149C74.9783 5.91521 74.6171 8.83893 73.9398 11.6949C73.8721 11.9771 73.8156 12.2706 73.7366 12.5528C73.7366 12.5641 73.7366 12.5754 73.7366 12.5867C72.0997 18.7954 68.8712 24.6316 64.0059 29.5082C60.1226 33.3915 55.6298 36.2249 50.8322 38.0423C50.8322 38.0423 50.8209 38.0423 50.8096 38.0536C46.5312 39.6679 42.0045 40.4807 37.4778 40.4807C28.21 40.4807 18.976 37.0715 11.7626 30.2645C11.503 30.0162 11.232 29.7566 10.9724 29.5082C10.7241 29.2486 10.4644 28.9889 10.2161 28.718C3.39783 21.5046 0 12.2706 0 3.00275C0 2.00936 0.0451375 1.01597 0.124157 0.0338642C1.56909 2.05451 3.20588 3.98486 5.02334 5.80232C10.9498 11.7401 18.1293 15.7136 25.7152 17.7117C25.7265 17.7117 25.7491 17.723 25.7716 17.723C28.1761 18.3551 30.6145 18.7954 33.0754 19.0325C33.5833 19.0776 34.1139 19.1115 34.6219 19.1566C35.5701 19.2131 36.5183 19.2356 37.4665 19.2356C37.4778 19.2356 37.5004 19.2356 37.5117 19.2356C40.1194 19.2356 42.7158 19.0099 45.2895 18.5696C47.8633 18.1294 50.4032 17.4634 52.8867 16.5716C53.2028 16.4587 53.5188 16.3571 53.8349 16.2442C59.7275 14.0091 65.2476 10.5096 69.9888 5.77972C71.8063 3.96227 73.4318 2.03193 74.8767 0C74.9106 0.417675 74.9445 0.846645 74.967 1.27561C74.9896 1.84003 75.0009 2.40446 75.0009 2.96889L74.9783 2.99149Z" fill="url(#paint0_linear_473_1047)"></path> <defs> <linearGradient id="paint0_linear_473_1047" x1="-6.09437e-07" y1="20.6901" x2="79.4223" y2="20.6901" gradientUnits="userSpaceOnUse"> <stop stop-color="#FF6700"></stop> <stop offset="1" stop-color="#FE9100"></stop> </linearGradient> </defs> </svg> 