<?xml version="1.0" encoding="UTF-8"?> <svg xmlns="http://www.w3.org/2000/svg" width="32" height="32" viewBox="0 0 32 32" fill="none"> <circle cx="16" cy="16" r="16" fill="black"></circle> <path fill-rule="evenodd" clip-rule="evenodd" d="M6.32467 15.8879C11.4972 13.6299 14.9464 12.1413 16.6721 11.4221C21.5996 9.36867 22.6235 9.01193 23.2908 9.00012C23.4376 8.99755 23.7658 9.03401 23.9784 9.20686C24.2938 9.46325 24.2956 10.0198 24.2606 10.3881C23.9935 13.1992 22.8381 20.021 22.2503 23.1694C22.0016 24.5017 21.5118 24.9484 21.0377 24.9921C20.0074 25.0871 19.2249 24.3098 18.2269 23.6544C16.6653 22.6287 15.7831 21.9902 14.2672 20.9894C12.5154 19.8327 13.6511 19.197 14.6494 18.158C14.9107 17.8862 19.4505 13.7487 19.5384 13.3734C19.5494 13.3264 19.5596 13.1514 19.4559 13.0591C19.3521 12.9667 19.199 12.9982 19.0885 13.0234C18.9319 13.059 16.4372 14.7112 11.6043 17.9798C10.8962 18.467 10.2548 18.7044 9.68016 18.6919C9.0466 18.6783 7.828 18.333 6.92205 18.038C5.81088 17.6761 4.92774 17.4847 5.00467 16.8701C5.04473 16.5499 5.48471 16.2226 6.32467 15.8879Z" fill="white"></path> </svg> 