<?xml version="1.0" encoding="UTF-8"?> <svg xmlns="http://www.w3.org/2000/svg" width="75" height="41" viewBox="0 0 75 41" fill="none"> <path d="M74.9788 37.4612C74.9788 38.4547 74.9337 39.4596 74.8546 40.4532C73.3982 38.4322 71.7724 36.5015 69.9547 34.6838C64.016 28.7451 56.8466 24.7709 49.2596 22.7725C49.2483 22.7725 49.2257 22.7612 49.2031 22.7612C46.3241 21.9935 43.3773 21.5193 40.4192 21.3274C39.437 21.2709 38.4434 21.237 37.4612 21.237C36.7725 21.237 36.0725 21.2483 35.3837 21.2822C34.4805 21.3274 33.5773 21.3951 32.6741 21.4854C32.0644 21.5419 31.466 21.6209 30.8676 21.7113C30.5741 21.7564 30.2693 21.8016 29.9757 21.858C29.8402 21.8693 29.7048 21.8919 29.5806 21.9145C29.5467 21.9145 29.5241 21.9145 29.4902 21.9258C29.3548 21.9484 29.2193 21.9709 29.0838 22.0048C28.7903 22.0613 28.4854 22.1177 28.1918 22.1742C27.8983 22.2306 27.5935 22.3096 27.2999 22.3774C27.1419 22.4112 27.0064 22.4451 26.8596 22.479C26.7806 22.5016 26.7015 22.5128 26.6338 22.5354C26.5547 22.5467 26.4871 22.5693 26.408 22.5919C26.1145 22.6596 25.8096 22.7386 25.516 22.8177C25.1435 22.9193 24.7822 23.0209 24.4096 23.1225C24.3757 23.1338 24.3306 23.1451 24.2967 23.1564C24.2629 23.1677 24.2403 23.179 24.2064 23.1903C24.1951 23.1903 24.1725 23.1903 24.15 23.2016C24.15 23.2016 24.1386 23.2016 24.1274 23.2016C24.0709 23.2129 23.9919 23.2354 23.9241 23.258C23.8903 23.258 23.8677 23.2693 23.8451 23.2806C23.8112 23.2806 23.7886 23.3032 23.7548 23.3145C23.5741 23.3709 23.4048 23.4274 23.2241 23.4838C23.0661 23.5403 22.9193 23.5854 22.7725 23.6419C22.7499 23.6419 22.716 23.6532 22.6935 23.6645C22.6144 23.687 22.5354 23.7209 22.4676 23.7435C22.3886 23.7661 22.3096 23.8 22.2419 23.8225C22.1629 23.8451 22.0951 23.879 22.0161 23.9016C21.7225 24.0032 21.4403 24.1048 21.158 24.2177C15.2645 26.4532 9.74353 29.9532 5.01289 34.6838C3.19516 36.5015 1.55803 38.4322 0.112875 40.4532C0.0790045 40.0354 0.0564156 39.6177 0.0338351 39.1999C0.0112545 38.6354 0 38.0709 0 37.5064C0 37.0999 0.0338351 36.7047 0.0338351 36.2983C0.112867 33.7354 0.462916 31.1612 1.07259 28.6548C1.12904 28.4064 1.17416 28.1693 1.2419 27.9209C1.2419 27.9209 1.2419 27.9096 1.2419 27.8983C2.879 21.6886 6.10802 15.8516 10.9741 10.9742C14.858 7.09031 19.3515 4.25645 24.1612 2.43871C28.4741 0.801615 33.0354 0 37.6193 0C46.8322 0 56.0337 3.42098 63.237 10.2177C63.4966 10.4661 63.7563 10.7145 64.016 10.9742C64.2757 11.2338 64.524 11.4935 64.7837 11.7645C71.5918 18.979 74.9901 28.2032 75.0014 37.4612H74.9788Z" fill="url(#paint0_linear_473_1048)"></path> <defs> <linearGradient id="paint0_linear_473_1048" x1="-6.09441e-07" y1="20.6761" x2="79.4229" y2="20.6761" gradientUnits="userSpaceOnUse"> <stop stop-color="#FF6700"></stop> <stop offset="1" stop-color="#FE9100"></stop> </linearGradient> </defs> </svg> 