<?xml version="1.0" encoding="UTF-8"?> <svg xmlns="http://www.w3.org/2000/svg" width="40" height="40" viewBox="0 0 40 40" fill="none"> <path d="M-1.74846e-06 -8.74228e-07C5.30433 -1.10609e-06 10.3914 2.10713 14.1421 5.85786C17.8929 9.60859 20 14.6957 20 20C20 25.3043 17.8929 30.3914 14.1421 34.1421C10.3914 37.8929 5.30433 40 3.8147e-06 40L-8.74228e-07 20L-1.74846e-06 -8.74228e-07Z" fill="white"></path> <path d="M40 40C34.6957 40 29.6086 37.8929 25.8579 34.1421C22.1071 30.3914 20 25.3043 20 20C20 14.6957 22.1071 9.60859 25.8579 5.85786C29.6086 2.10714 34.6957 -3.05156e-07 40 -8.74228e-07L40 20L40 40Z" fill="white"></path> </svg> 