<?xml version="1.0" encoding="UTF-8"?> <svg xmlns="http://www.w3.org/2000/svg" width="41" height="75" viewBox="0 0 41 75" fill="none"> <path d="M34.6944 69.9759C36.5121 71.7936 38.4427 73.4307 40.4636 74.8758C39.4813 74.9548 38.4991 75 37.5169 75C34.2992 75 31.0703 74.5822 27.9429 73.7581C27.9316 73.7581 27.9203 73.7581 27.909 73.7581C21.7108 72.121 15.8625 68.892 10.9852 64.026C7.10143 60.1422 4.25633 55.6488 2.43863 50.8505C0.812855 46.5603 0 42.0217 0 37.4831C0 28.2252 3.3983 18.9899 10.2175 11.7643C10.4659 11.5046 10.7255 11.2449 10.9852 10.9853C11.2336 10.7256 11.5046 10.4772 11.7642 10.2175C18.9899 3.39833 28.2252 0 37.5056 0C38.4991 0 39.4814 0.045161 40.4749 0.124191C40.4297 0.158062 40.3846 0.180655 40.3394 0.225815C38.3636 1.64836 36.4782 3.25156 34.6944 5.0241C28.7558 10.9627 24.7704 18.1431 22.7834 25.7188C22.7834 25.7301 22.772 25.7527 22.7608 25.764C21.7447 29.6139 21.2479 33.5654 21.2479 37.5169C21.2479 43.0491 22.2414 48.5812 24.2398 53.8311C26.4752 59.7245 29.9638 65.2566 34.7057 69.9872L34.6944 69.9759Z" fill="url(#paint0_linear_473_1049)"></path> <defs> <linearGradient id="paint0_linear_473_1049" x1="-3.28888e-07" y1="38.3333" x2="42.861" y2="38.3333" gradientUnits="userSpaceOnUse"> <stop stop-color="#FF6700"></stop> <stop offset="1" stop-color="#FE9100"></stop> </linearGradient> </defs> </svg> 