<?xml version="1.0" encoding="UTF-8"?> <svg xmlns="http://www.w3.org/2000/svg" width="339" height="452" viewBox="0 0 339 452" fill="none"> <path d="M48.0244 0V306.748" stroke="black" stroke-width="0.19" stroke-miterlimit="10"></path> <path d="M64.6309 9.65552V316.404" stroke="black" stroke-width="0.19" stroke-miterlimit="10"></path> <path d="M81.2148 19.311V326.059" stroke="black" stroke-width="0.19" stroke-miterlimit="10"></path> <path d="M97.8213 28.9668V335.691" stroke="black" stroke-width="0.19" stroke-miterlimit="10"></path> <path d="M114.403 38.5986V345.347" stroke="black" stroke-width="0.19" stroke-miterlimit="10"></path> <path d="M131.01 48.2542V355.002" stroke="black" stroke-width="0.19" stroke-miterlimit="10"></path> <path d="M147.594 57.9097V364.658" stroke="black" stroke-width="0.19" stroke-miterlimit="10"></path> <path d="M164.2 67.5652V374.313" stroke="black" stroke-width="0.19" stroke-miterlimit="10"></path> <path d="M180.782 77.2207V383.945" stroke="black" stroke-width="0.19" stroke-miterlimit="10"></path> <path d="M197.389 86.8525V393.601" stroke="black" stroke-width="0.19" stroke-miterlimit="10"></path> <path d="M213.996 96.5083V403.256" stroke="black" stroke-width="0.19" stroke-miterlimit="10"></path> <path d="M230.579 106.164V412.912" stroke="black" stroke-width="0.19" stroke-miterlimit="10"></path> <path d="M247.186 115.819V422.567" stroke="black" stroke-width="0.19" stroke-miterlimit="10"></path> <path d="M263.768 125.451V432.199" stroke="black" stroke-width="0.19" stroke-miterlimit="10"></path> <path d="M280.375 135.107V441.855" stroke="black" stroke-width="0.19" stroke-miterlimit="10"></path> <path d="M296.958 144.762V451.51" stroke="black" stroke-width="0.19" stroke-miterlimit="10"></path> <path d="M305 158.736L39.9824 4.62622" stroke="black" stroke-opacity="0.5" stroke-width="0.19" stroke-miterlimit="10"></path> <path d="M305 177.952L39.9824 23.8425" stroke="black" stroke-opacity="0.5" stroke-width="0.19" stroke-miterlimit="10"></path> <path d="M305 197.168L39.9824 43.0586" stroke="black" stroke-opacity="0.5" stroke-width="0.19" stroke-miterlimit="10"></path> <path d="M305 216.361L39.9824 62.2512" stroke="black" stroke-opacity="0.5" stroke-width="0.19" stroke-miterlimit="10"></path> <path d="M305 235.577L39.9824 81.4675" stroke="black" stroke-opacity="0.5" stroke-width="0.19" stroke-miterlimit="10"></path> <path d="M305 254.793L39.9824 100.684" stroke="black" stroke-opacity="0.5" stroke-width="0.19" stroke-miterlimit="10"></path> <path d="M305 273.986L39.9824 119.9" stroke="black" stroke-opacity="0.5" stroke-width="0.19" stroke-miterlimit="10"></path> <path d="M305 293.202L39.9824 139.093" stroke="black" stroke-opacity="0.5" stroke-width="0.19" stroke-miterlimit="10"></path> <path d="M305 312.418L39.9824 158.309" stroke="black" stroke-opacity="0.5" stroke-width="0.19" stroke-miterlimit="10"></path> <path d="M305 331.634L39.9824 177.525" stroke="black" stroke-opacity="0.5" stroke-width="0.19" stroke-miterlimit="10"></path> <path d="M305 350.827L39.9824 196.718" stroke="black" stroke-opacity="0.5" stroke-width="0.19" stroke-miterlimit="10"></path> <path d="M305 370.043L39.9824 215.934" stroke="black" stroke-opacity="0.5" stroke-width="0.19" stroke-miterlimit="10"></path> <path d="M305 389.259L39.9824 235.15" stroke="black" stroke-opacity="0.5" stroke-width="0.19" stroke-miterlimit="10"></path> <path d="M305 408.452L39.9824 254.343" stroke="black" stroke-opacity="0.5" stroke-width="0.19" stroke-miterlimit="10"></path> <path d="M305 427.668L39.9824 273.559" stroke="black" stroke-opacity="0.5" stroke-width="0.19" stroke-miterlimit="10"></path> <path d="M305 446.884L39.9824 292.775" stroke="black" stroke-opacity="0.5" stroke-width="0.19" stroke-miterlimit="10"></path> <path d="M45.6992 230.856L94.5702 151.405L121.781 246.585L157.011 204.617L206.878 330.567L254.539 163.386L290.006 344.398" stroke="#FFD83E" stroke-width="2" stroke-miterlimit="10"></path> <path d="M105.198 148.724C105.198 148.582 105.198 148.439 105.198 148.273C105.198 148.202 105.198 148.131 105.198 148.06C105.198 148.036 105.198 148.012 105.198 147.965C105.198 147.918 105.198 147.87 105.198 147.799C105.198 147.657 105.175 147.491 105.151 147.348C105.151 147.206 105.103 147.04 105.08 146.897V146.874C105.08 146.731 105.032 146.589 105.009 146.447C104.985 146.281 104.937 146.138 104.914 145.972C104.914 145.925 104.89 145.854 104.866 145.806C104.866 145.782 104.866 145.735 104.866 145.711C104.866 145.64 104.842 145.569 104.819 145.498C104.771 145.332 104.748 145.166 104.7 145C104.676 144.881 104.629 144.762 104.605 144.644C104.605 144.644 104.605 144.596 104.605 144.572C104.605 144.572 104.605 144.525 104.605 144.501C104.558 144.335 104.51 144.193 104.463 144.027C104.415 143.861 104.368 143.718 104.297 143.552C104.297 143.529 104.297 143.505 104.273 143.457C104.273 143.434 104.273 143.41 104.249 143.386C104.202 143.291 104.178 143.197 104.131 143.102C104.083 142.959 104.012 142.793 103.941 142.651C103.894 142.556 103.846 142.437 103.799 142.342C103.799 142.342 103.799 142.295 103.775 142.295C103.775 142.295 103.775 142.248 103.751 142.224C103.68 142.081 103.609 141.939 103.538 141.773C103.467 141.607 103.372 141.441 103.3 141.299C103.3 141.275 103.277 141.251 103.253 141.227C103.253 141.204 103.229 141.156 103.206 141.133C103.134 141.014 103.087 140.872 103.016 140.753C102.921 140.587 102.85 140.445 102.755 140.278C102.707 140.207 102.66 140.112 102.612 140.041C102.612 140.018 102.589 139.97 102.565 139.946C102.494 139.804 102.399 139.685 102.304 139.543C102.185 139.353 102.067 139.14 101.924 138.95C101.924 138.926 101.877 138.879 101.877 138.855C101.687 138.57 101.497 138.309 101.308 138.025C101.165 137.835 101.047 137.669 100.904 137.479C100.786 137.337 100.667 137.194 100.572 137.052C100.454 136.91 100.335 136.767 100.216 136.649C100.098 136.506 99.9791 136.388 99.8605 136.245C99.8605 136.245 99.8131 136.198 99.7893 136.174C99.7893 136.174 99.7419 136.127 99.7182 136.103C99.6233 136.008 99.5521 135.913 99.4572 135.842C99.3386 135.724 99.1963 135.581 99.0777 135.463C99.0302 135.415 99.0064 135.391 98.959 135.344C98.9353 135.32 98.8879 135.297 98.8642 135.249C98.793 135.202 98.7455 135.13 98.6743 135.083C98.532 134.964 98.4134 134.846 98.2711 134.727C98.1999 134.68 98.1524 134.632 98.0812 134.585C98.0575 134.561 98.01 134.537 97.9863 134.514C97.9389 134.466 97.8914 134.442 97.844 134.395C97.7016 134.3 97.5831 134.181 97.4407 134.087C97.3458 134.015 97.2509 133.944 97.156 133.873C97.156 133.873 97.1085 133.849 97.1085 133.826C97.1085 133.826 97.0848 133.802 97.0611 133.778C96.9425 133.683 96.8002 133.612 96.6815 133.517C96.5629 133.446 96.4206 133.351 96.3019 133.28C96.2782 133.28 96.2308 133.256 96.207 133.233C96.1121 133.185 96.0173 133.114 95.9224 133.066C95.8037 132.995 95.6614 132.924 95.5428 132.877C95.4716 132.829 95.3768 132.806 95.3056 132.758C95.3056 132.758 95.2581 132.758 95.2344 132.734C95.2344 132.734 95.187 132.734 95.1633 132.711C95.0446 132.663 94.926 132.592 94.8073 132.545C94.6887 132.497 94.5701 132.45 94.4278 132.402C94.4278 132.402 94.3803 132.402 94.3566 132.402H94.3092C94.2143 132.378 94.1431 132.355 94.0482 132.331C93.9296 132.284 93.7873 132.26 93.6686 132.236C93.5975 132.236 93.55 132.212 93.4788 132.189C93.4551 132.189 93.4314 132.189 93.4076 132.189C93.3602 132.189 93.3365 132.189 93.2891 132.165C93.1467 132.141 93.0281 132.118 92.8857 132.094C92.8146 132.094 92.7196 132.094 92.6485 132.07C92.6247 132.07 92.6011 132.07 92.5536 132.07C92.5299 132.07 92.5062 132.07 92.4825 132.07C92.3401 132.07 92.1977 132.07 92.0554 132.07C91.9842 132.07 91.9368 132.07 91.8656 132.07C91.8182 132.07 91.7707 132.07 91.7233 132.07C91.6758 132.07 91.6284 132.07 91.5809 132.07C91.3912 132.07 91.2251 132.118 91.059 132.141C91.0116 132.141 90.9879 132.141 90.9404 132.165C90.7744 132.212 90.5846 132.26 90.4185 132.307C90.4185 132.307 90.3947 132.307 90.371 132.307C90.1338 132.402 89.8966 132.497 89.6593 132.639L86.5752 134.419C86.7887 134.3 87.026 134.181 87.287 134.087C87.4767 134.015 87.6665 133.968 87.8563 133.921C87.9037 133.921 87.9275 133.921 87.975 133.897C88.1885 133.849 88.4257 133.826 88.6629 133.802C88.7103 133.802 88.7578 133.802 88.8052 133.802C89.0425 133.802 89.256 133.802 89.4932 133.802C89.517 133.802 89.5407 133.802 89.5882 133.802C89.8254 133.826 90.0864 133.873 90.3473 133.921C90.3711 133.921 90.3948 133.921 90.4185 133.921C90.6795 133.968 90.9641 134.063 91.2251 134.158H91.2725C91.5572 134.253 91.8419 134.371 92.1503 134.514C92.1503 134.514 92.1978 134.514 92.1978 134.537C92.5062 134.68 92.7908 134.822 93.0992 135.012C93.4076 135.202 93.7161 135.391 94.0245 135.605C94.0245 135.605 94.0719 135.629 94.0719 135.652C94.3566 135.842 94.6413 136.056 94.9023 136.269C94.926 136.293 94.9734 136.317 94.9972 136.34C95.2581 136.554 95.5191 136.791 95.78 137.028C95.8037 137.052 95.8512 137.076 95.8749 137.123C96.1359 137.36 96.3969 137.621 96.6341 137.882C96.6341 137.882 96.6816 137.93 96.7053 137.954C96.9662 138.238 97.2272 138.523 97.4881 138.831C97.9863 139.424 98.4371 140.065 98.8878 140.706C99.0064 140.895 99.1251 141.085 99.2674 141.299C99.3623 141.465 99.4809 141.631 99.5758 141.797C99.6233 141.868 99.6707 141.963 99.7182 142.034C99.8842 142.319 100.027 142.603 100.193 142.888C100.193 142.912 100.216 142.959 100.24 142.983C100.406 143.339 100.596 143.695 100.738 144.051V144.098C100.881 144.454 101.023 144.81 101.165 145.166C101.165 145.166 101.165 145.213 101.189 145.237C101.331 145.593 101.45 145.972 101.545 146.328C101.545 146.328 101.545 146.375 101.545 146.399C101.64 146.755 101.735 147.111 101.83 147.443C101.83 147.467 101.83 147.514 101.83 147.538C101.901 147.894 101.996 148.25 102.043 148.629C102.091 148.985 102.138 149.341 102.185 149.721C102.185 149.744 102.185 149.768 102.185 149.815C102.209 150.171 102.233 150.527 102.233 150.883C102.233 151.239 102.233 151.571 102.185 151.879C102.185 151.903 102.185 151.927 102.185 151.974C102.162 152.259 102.114 152.567 102.067 152.828C102.067 152.876 102.067 152.9 102.067 152.947C102.019 153.208 101.948 153.469 101.877 153.706C101.877 153.754 101.853 153.801 101.83 153.848C101.758 154.086 101.664 154.299 101.569 154.513C101.569 154.513 101.569 154.56 101.545 154.584C101.426 154.821 101.308 155.035 101.165 155.248C101.165 155.272 101.118 155.296 101.118 155.319C100.999 155.485 100.881 155.651 100.762 155.794C100.715 155.841 100.667 155.889 100.62 155.96C100.501 156.079 100.406 156.197 100.264 156.292C100.216 156.339 100.169 156.387 100.122 156.411C99.9554 156.553 99.7894 156.672 99.5996 156.79L102.684 155.011C102.873 154.892 103.04 154.774 103.206 154.631C103.253 154.584 103.3 154.536 103.348 154.513C103.467 154.418 103.585 154.299 103.704 154.181C103.751 154.133 103.799 154.086 103.846 154.015C103.965 153.872 104.083 153.706 104.202 153.54C104.202 153.516 104.249 153.493 104.249 153.469C104.368 153.279 104.487 153.066 104.605 152.852C104.605 152.852 104.605 152.805 104.629 152.781C104.7 152.639 104.748 152.496 104.819 152.354C104.842 152.283 104.866 152.212 104.89 152.117C104.89 152.069 104.914 152.022 104.937 151.974C104.937 151.927 104.961 151.903 104.985 151.856C105.032 151.713 105.08 151.547 105.103 151.381C105.103 151.334 105.103 151.263 105.127 151.215C105.127 151.168 105.127 151.144 105.127 151.097C105.127 151.049 105.127 150.978 105.151 150.93C105.175 150.788 105.198 150.646 105.222 150.503C105.222 150.432 105.222 150.337 105.246 150.242C105.246 150.219 105.246 150.195 105.246 150.148C105.246 150.124 105.246 150.076 105.246 150.053C105.246 149.91 105.246 149.768 105.27 149.626C105.27 149.483 105.27 149.341 105.27 149.175C105.27 149.175 105.27 149.175 105.27 149.151C105.27 149.009 105.27 148.866 105.27 148.748L105.198 148.724Z" fill="url(#paint0_linear_501_1280)"></path> <path d="M92.9568 135.083C98.0337 138.001 102.114 145.118 102.114 150.931C102.114 156.767 97.9625 159.092 92.9094 156.173C87.8325 153.255 83.752 146.162 83.752 140.326C83.752 134.49 87.9036 132.141 92.9568 135.083Z" fill="url(#paint1_linear_501_1280)"></path> <path d="M56.423 233.56C56.423 233.418 56.423 233.276 56.423 233.11C56.423 233.038 56.423 232.967 56.423 232.896C56.423 232.872 56.423 232.849 56.423 232.801C56.423 232.754 56.423 232.706 56.423 232.635C56.423 232.493 56.3993 232.327 56.3755 232.184C56.3755 232.042 56.3281 231.876 56.3044 231.734C56.3044 231.591 56.2569 231.449 56.2332 231.307C56.2095 231.14 56.162 230.998 56.1383 230.832C56.1383 230.785 56.1146 230.713 56.0909 230.666C56.0909 230.642 56.0909 230.595 56.0909 230.571C56.0909 230.5 56.0671 230.429 56.0434 230.358C55.9959 230.192 55.9722 230.025 55.9248 229.859C55.9011 229.741 55.8536 229.622 55.8299 229.504C55.8299 229.504 55.8299 229.456 55.8299 229.432C55.8299 229.432 55.8299 229.385 55.8299 229.361C55.7824 229.195 55.735 229.053 55.6875 228.887C55.6401 228.721 55.5926 228.578 55.5214 228.412C55.5214 228.389 55.5215 228.365 55.4978 228.317C55.4978 228.294 55.4978 228.27 55.474 228.246C55.4266 228.151 55.4029 228.056 55.3554 227.962C55.308 227.819 55.2368 227.653 55.1656 227.511C55.1182 227.416 55.0707 227.297 55.0233 227.202C55.0233 227.202 55.0232 227.155 54.9995 227.155C54.9995 227.155 54.9996 227.107 54.9758 227.084C54.9047 226.941 54.8335 226.799 54.7623 226.633C54.6912 226.467 54.5963 226.301 54.5251 226.159C54.5251 226.135 54.5013 226.111 54.4776 226.087C54.4776 226.064 54.4539 226.016 54.4302 225.992C54.359 225.874 54.3116 225.731 54.2404 225.613C54.1455 225.447 54.0743 225.304 53.9794 225.138C53.932 225.067 53.8845 224.972 53.8371 224.901C53.8371 224.877 53.8134 224.83 53.7897 224.806C53.7185 224.664 53.6236 224.545 53.5287 224.403C53.41 224.213 53.2914 224 53.1491 223.81C53.1491 223.786 53.1017 223.739 53.1017 223.715C52.9119 223.43 52.7221 223.169 52.5323 222.885C52.39 222.695 52.2713 222.529 52.129 222.339C52.0104 222.197 51.8918 222.054 51.7969 221.912C51.6783 221.77 51.5596 221.627 51.441 221.485C51.3223 221.343 51.2037 221.224 51.0851 221.082C51.0851 221.082 51.0377 221.034 51.014 221.01C51.014 221.01 50.9665 220.963 50.9428 220.939C50.8479 220.844 50.7768 220.75 50.6819 220.678C50.5632 220.56 50.4209 220.417 50.3023 220.299C50.2548 220.251 50.2311 220.228 50.1836 220.18C50.1599 220.156 50.1125 220.133 50.0888 220.085C50.0176 220.038 49.9701 219.967 49.8989 219.919C49.7566 219.801 49.638 219.682 49.4957 219.563C49.4245 219.516 49.377 219.468 49.3058 219.421C49.2821 219.397 49.2346 219.374 49.2109 219.35C49.1635 219.302 49.116 219.279 49.0686 219.231C48.9262 219.136 48.8077 219.018 48.6653 218.923C48.5704 218.852 48.4755 218.78 48.3806 218.709C48.3806 218.709 48.3332 218.686 48.3332 218.662C48.3332 218.662 48.3095 218.638 48.2857 218.614C48.1671 218.519 48.0248 218.448 47.9061 218.353C47.7875 218.282 47.6452 218.187 47.5266 218.116C47.5028 218.116 47.4554 218.092 47.4316 218.069C47.3367 218.021 47.2419 217.95 47.147 217.903C47.0283 217.831 46.886 217.76 46.7674 217.713C46.6962 217.665 46.6014 217.642 46.5302 217.594C46.5302 217.594 46.4828 217.594 46.459 217.571C46.4353 217.571 46.4115 217.571 46.3878 217.547C46.2692 217.499 46.1506 217.428 46.0319 217.381C45.9133 217.333 45.7947 217.286 45.6524 217.238C45.6524 217.238 45.6049 217.238 45.5812 217.238H45.5338C45.4389 217.215 45.3677 217.191 45.2728 217.167C45.1542 217.12 45.0119 217.096 44.8933 217.072C44.8221 217.072 44.7746 217.049 44.7034 217.025C44.6797 217.025 44.656 217.025 44.6323 217.025C44.5848 217.025 44.5611 217.025 44.5137 217.001C44.3713 216.977 44.2527 216.954 44.1103 216.93C44.0392 216.93 43.9443 216.93 43.8731 216.906C43.8494 216.906 43.8257 216.906 43.7782 216.906C43.7545 216.906 43.7308 216.906 43.7071 216.906C43.5647 216.906 43.4223 216.906 43.28 216.906C43.2088 216.906 43.1614 216.906 43.0902 216.906C43.0428 216.906 42.9953 216.906 42.9479 216.906C42.9004 216.906 42.853 216.906 42.8056 216.906C42.6158 216.906 42.4497 216.954 42.2836 216.977C42.2362 216.977 42.2124 216.977 42.165 217.001C41.9989 217.049 41.8091 217.096 41.643 217.143C41.643 217.143 41.6193 217.143 41.5956 217.143C41.3584 217.238 41.1212 217.333 40.8839 217.476L37.7998 219.255C38.0133 219.136 38.2506 219.018 38.5116 218.923C38.7014 218.852 38.8911 218.804 39.0809 218.757C39.1284 218.757 39.152 218.757 39.1995 218.733C39.413 218.686 39.6503 218.662 39.8875 218.638C39.935 218.638 39.9824 218.638 40.0298 218.638C40.2671 218.638 40.4806 218.638 40.7179 218.638C40.7416 218.638 40.7653 218.638 40.8128 218.638C41.05 218.638 41.3109 218.709 41.5719 218.757C41.5956 218.757 41.6193 218.757 41.643 218.757C41.904 218.828 42.1888 218.899 42.4497 218.994H42.4971C42.7818 219.089 43.0665 219.207 43.3749 219.35C43.3749 219.35 43.4223 219.35 43.4223 219.374C43.7307 219.516 44.0154 219.658 44.3238 219.848C44.6322 220.038 44.9407 220.228 45.2491 220.441C45.2491 220.441 45.2965 220.465 45.2965 220.489C45.5812 220.678 45.8659 220.892 46.1269 221.105C46.1506 221.129 46.1981 221.153 46.2218 221.177C46.4827 221.39 46.7437 221.627 47.0046 221.865C47.0284 221.888 47.0758 221.912 47.0995 221.959C47.3605 222.197 47.6215 222.458 47.8587 222.719C47.8587 222.719 47.9062 222.766 47.9299 222.79C48.1909 223.074 48.4518 223.359 48.7127 223.668C49.2109 224.261 49.6617 224.901 50.1124 225.565C50.2311 225.755 50.3497 225.945 50.492 226.159C50.5869 226.325 50.7056 226.491 50.8004 226.657C50.8479 226.728 50.8953 226.823 50.9428 226.894C51.1088 227.179 51.2512 227.463 51.4173 227.748C51.4173 227.772 51.441 227.819 51.4647 227.843C51.6308 228.199 51.8205 228.555 51.9629 228.91V228.958C52.1052 229.314 52.2476 229.67 52.39 230.025C52.39 230.025 52.3899 230.073 52.4136 230.097C52.556 230.453 52.6746 230.832 52.7695 231.188C52.7695 231.188 52.7695 231.235 52.7695 231.259C52.8644 231.615 52.9593 231.971 53.0542 232.303C53.0542 232.327 53.0542 232.374 53.0542 232.398C53.1254 232.754 53.2203 233.133 53.2677 233.489C53.3152 233.845 53.3626 234.201 53.3863 234.58C53.3863 234.604 53.3863 234.628 53.3863 234.675C53.41 235.031 53.4337 235.387 53.4337 235.743C53.4337 236.099 53.4338 236.431 53.3863 236.739C53.3863 236.763 53.3863 236.787 53.3863 236.834C53.3626 237.119 53.3152 237.427 53.2677 237.688C53.2677 237.736 53.2677 237.759 53.2677 237.807C53.2203 238.068 53.1491 238.329 53.0779 238.566C53.0779 238.613 53.0542 238.661 53.0305 238.708C52.9593 238.946 52.8644 239.159 52.7695 239.373C52.7695 239.373 52.7695 239.42 52.7458 239.444C52.6272 239.681 52.5086 239.895 52.3662 240.108C52.3662 240.132 52.3187 240.156 52.3187 240.179C52.2001 240.345 52.0815 240.511 51.9629 240.654C51.9154 240.701 51.868 240.749 51.8205 240.82C51.7019 240.938 51.607 241.057 51.4647 241.152C51.4173 241.199 51.3698 241.247 51.3224 241.271C51.1563 241.413 50.9902 241.532 50.8004 241.65L53.8845 239.871C54.0743 239.752 54.2404 239.634 54.4064 239.491C54.4539 239.444 54.5013 239.396 54.5488 239.373C54.6674 239.278 54.7861 239.159 54.9047 239.04C54.9521 238.993 54.9996 238.946 55.047 238.874C55.1656 238.732 55.2842 238.566 55.4029 238.4C55.4029 238.376 55.4503 238.353 55.4503 238.329C55.5689 238.139 55.6875 237.925 55.8061 237.712C55.8061 237.712 55.8061 237.665 55.8299 237.641C55.901 237.498 55.9485 237.356 56.0197 237.214C56.0434 237.143 56.0671 237.071 56.0909 236.977C56.0909 236.929 56.1146 236.882 56.1383 236.834C56.1383 236.787 56.162 236.763 56.1857 236.716C56.2332 236.573 56.2806 236.407 56.3044 236.241C56.3044 236.194 56.3043 236.122 56.328 236.075C56.328 236.028 56.328 236.004 56.328 235.956C56.328 235.909 56.3281 235.838 56.3518 235.79C56.3755 235.648 56.3992 235.506 56.423 235.363C56.423 235.292 56.423 235.197 56.4467 235.102C56.4467 235.079 56.4467 235.055 56.4467 235.007C56.4467 234.984 56.4467 234.936 56.4467 234.913C56.4467 234.77 56.4467 234.628 56.4704 234.486C56.4704 234.343 56.4704 234.201 56.4704 234.035C56.4704 233.869 56.4704 233.726 56.4704 233.584L56.423 233.56Z" fill="url(#paint2_linear_501_1280)"></path> <path d="M44.2048 219.919C49.2817 222.837 53.3622 229.954 53.3622 235.767C53.3622 241.603 49.2106 243.928 44.1574 241.01C39.0805 238.092 35 230.998 35 225.162C35 219.326 39.1517 216.978 44.2048 219.919Z" fill="url(#paint3_linear_501_1280)"></path> <path d="M130.465 255.268C130.465 255.125 130.465 254.983 130.465 254.817C130.465 254.746 130.465 254.674 130.465 254.603C130.465 254.58 130.465 254.556 130.465 254.508C130.465 254.461 130.465 254.414 130.465 254.342C130.465 254.2 130.441 254.034 130.417 253.892C130.417 253.749 130.37 253.583 130.346 253.441C130.346 253.298 130.299 253.156 130.275 253.014C130.251 252.848 130.204 252.705 130.18 252.539C130.18 252.492 130.156 252.421 130.133 252.373C130.133 252.35 130.133 252.302 130.133 252.278C130.133 252.207 130.109 252.136 130.085 252.065C130.038 251.899 130.014 251.733 129.966 251.567C129.943 251.448 129.895 251.329 129.872 251.211C129.872 251.211 129.872 251.163 129.872 251.14C129.872 251.14 129.872 251.092 129.872 251.068C129.824 250.902 129.777 250.76 129.729 250.594C129.682 250.428 129.611 250.286 129.563 250.12C129.563 250.096 129.563 250.072 129.539 250.025C129.539 250.025 129.539 249.977 129.516 249.953C129.468 249.859 129.445 249.764 129.397 249.669C129.35 249.526 129.278 249.36 129.207 249.218C129.16 249.123 129.112 249.004 129.065 248.91C129.065 248.91 129.065 248.862 129.041 248.862C129.041 248.862 129.041 248.815 129.018 248.791C128.946 248.649 128.875 248.506 128.804 248.34C128.733 248.174 128.638 248.008 128.567 247.866C128.567 247.842 128.543 247.818 128.519 247.795C128.519 247.771 128.496 247.723 128.472 247.7C128.401 247.581 128.353 247.439 128.282 247.32C128.187 247.154 128.116 247.012 128.021 246.846C127.974 246.774 127.926 246.68 127.879 246.608C127.879 246.585 127.855 246.537 127.831 246.514C127.76 246.371 127.665 246.253 127.57 246.11C127.452 245.92 127.333 245.707 127.191 245.517C127.191 245.493 127.143 245.446 127.143 245.422C126.954 245.138 126.764 244.877 126.574 244.592C126.432 244.402 126.313 244.236 126.171 244.046C126.052 243.904 125.933 243.762 125.839 243.619C125.72 243.477 125.601 243.335 125.483 243.216C125.364 243.074 125.245 242.955 125.127 242.813C125.127 242.813 125.079 242.765 125.056 242.741C125.056 242.741 125.008 242.694 124.984 242.67C124.89 242.575 124.818 242.48 124.724 242.409C124.605 242.291 124.463 242.148 124.344 242.03C124.297 241.982 124.273 241.959 124.225 241.911C124.202 241.887 124.154 241.864 124.13 241.816C124.059 241.769 124.012 241.698 123.941 241.65C123.798 241.532 123.68 241.413 123.537 241.294C123.466 241.247 123.419 241.199 123.348 241.152C123.324 241.128 123.276 241.104 123.253 241.081C123.205 241.033 123.158 241.01 123.11 240.962C122.968 240.867 122.849 240.749 122.707 240.654C122.612 240.583 122.517 240.511 122.422 240.44C122.422 240.44 122.375 240.417 122.375 240.393C122.375 240.393 122.351 240.369 122.327 240.345C122.209 240.25 122.066 240.179 121.948 240.084C121.829 240.013 121.687 239.918 121.568 239.847C121.545 239.847 121.497 239.823 121.473 239.8C121.379 239.752 121.284 239.681 121.189 239.634C121.07 239.562 120.928 239.491 120.809 239.444C120.738 239.396 120.643 239.373 120.572 239.325C120.572 239.325 120.524 239.325 120.501 239.301C120.501 239.301 120.453 239.301 120.43 239.278C120.311 239.23 120.192 239.159 120.074 239.112C119.955 239.064 119.836 239.017 119.694 238.969C119.694 238.969 119.647 238.969 119.623 238.969H119.575C119.481 238.946 119.409 238.922 119.338 238.898C119.22 238.851 119.077 238.827 118.959 238.803C118.888 238.803 118.84 238.78 118.769 238.756C118.745 238.756 118.721 238.756 118.698 238.756C118.65 238.756 118.627 238.756 118.579 238.732C118.437 238.708 118.318 238.685 118.176 238.661C118.105 238.661 118.01 238.661 117.939 238.637C117.915 238.637 117.891 238.637 117.844 238.637C117.82 238.637 117.796 238.637 117.772 238.637C117.63 238.637 117.488 238.637 117.345 238.637C117.274 238.637 117.227 238.637 117.156 238.637C117.108 238.637 117.061 238.637 117.013 238.637C116.966 238.637 116.918 238.637 116.871 238.637C116.681 238.637 116.515 238.685 116.349 238.708C116.302 238.708 116.278 238.708 116.23 238.732C116.064 238.78 115.875 238.827 115.708 238.874C115.708 238.874 115.685 238.874 115.661 238.874C115.424 238.969 115.187 239.064 114.949 239.207L111.865 240.986C112.079 240.867 112.316 240.749 112.577 240.654C112.767 240.583 112.957 240.535 113.146 240.488C113.194 240.488 113.217 240.488 113.265 240.464C113.478 240.416 113.716 240.393 113.953 240.369C114 240.369 114.048 240.369 114.095 240.369C114.333 240.369 114.546 240.369 114.783 240.369C114.807 240.369 114.831 240.369 114.878 240.369C115.115 240.369 115.376 240.44 115.637 240.488C115.661 240.488 115.685 240.488 115.708 240.488C115.969 240.535 116.254 240.63 116.515 240.725H116.563C116.847 240.82 117.132 240.938 117.44 241.081C117.44 241.081 117.488 241.081 117.488 241.104C117.796 241.247 118.081 241.389 118.389 241.579C118.698 241.769 119.006 241.959 119.315 242.172C119.315 242.172 119.362 242.196 119.362 242.22C119.647 242.409 119.931 242.623 120.192 242.836C120.216 242.86 120.263 242.884 120.287 242.907C120.548 243.121 120.809 243.358 121.07 243.595C121.094 243.619 121.141 243.643 121.165 243.69C121.426 243.928 121.687 244.189 121.924 244.45C121.924 244.45 121.972 244.497 121.995 244.521C122.256 244.805 122.517 245.09 122.778 245.398C123.276 245.992 123.727 246.632 124.178 247.273C124.296 247.462 124.415 247.652 124.557 247.866C124.652 248.032 124.771 248.198 124.866 248.364C124.913 248.435 124.961 248.53 125.008 248.601C125.174 248.886 125.317 249.171 125.483 249.455C125.483 249.479 125.506 249.526 125.53 249.55C125.696 249.906 125.886 250.262 126.028 250.618V250.665C126.171 251.021 126.313 251.377 126.455 251.733C126.455 251.756 126.455 251.78 126.479 251.804C126.621 252.16 126.74 252.539 126.835 252.895C126.835 252.895 126.835 252.943 126.835 252.966C126.93 253.322 127.025 253.678 127.12 254.01C127.12 254.034 127.12 254.081 127.12 254.105C127.215 254.461 127.286 254.841 127.333 255.196C127.381 255.552 127.428 255.908 127.476 256.288C127.476 256.311 127.476 256.335 127.476 256.383C127.499 256.738 127.523 257.094 127.523 257.45C127.523 257.806 127.523 258.138 127.476 258.447C127.476 258.47 127.476 258.494 127.476 258.541C127.452 258.826 127.404 259.135 127.357 259.395C127.357 259.443 127.357 259.467 127.357 259.514C127.309 259.775 127.238 260.036 127.167 260.273C127.167 260.321 127.143 260.368 127.12 260.416C127.048 260.653 126.954 260.866 126.859 261.08C126.859 261.08 126.859 261.127 126.835 261.151C126.716 261.388 126.598 261.602 126.455 261.815C126.455 261.839 126.408 261.863 126.408 261.886C126.289 262.053 126.171 262.219 126.052 262.361C126.005 262.408 125.957 262.456 125.91 262.527C125.791 262.646 125.696 262.764 125.554 262.859C125.506 262.907 125.459 262.954 125.412 262.978C125.245 263.12 125.079 263.239 124.89 263.357L127.974 261.578C128.163 261.459 128.33 261.341 128.496 261.199C128.543 261.151 128.59 261.104 128.638 261.08C128.757 260.985 128.875 260.866 128.994 260.748C129.041 260.7 129.089 260.653 129.136 260.582C129.255 260.439 129.373 260.273 129.492 260.107C129.492 260.083 129.539 260.06 129.539 260.036C129.658 259.846 129.777 259.633 129.895 259.419C129.895 259.419 129.895 259.372 129.919 259.348C129.99 259.206 130.038 259.063 130.109 258.921C130.133 258.85 130.156 258.779 130.18 258.684C130.18 258.636 130.204 258.589 130.227 258.541C130.227 258.494 130.251 258.47 130.275 258.423C130.322 258.281 130.37 258.114 130.393 257.948C130.393 257.901 130.394 257.83 130.417 257.782C130.417 257.735 130.417 257.711 130.417 257.664C130.417 257.616 130.417 257.545 130.441 257.498C130.465 257.355 130.488 257.213 130.512 257.071C130.512 256.999 130.512 256.905 130.536 256.81C130.536 256.786 130.536 256.762 130.536 256.715C130.536 256.691 130.536 256.644 130.536 256.62C130.536 256.477 130.536 256.335 130.56 256.193C130.56 256.05 130.56 255.908 130.56 255.742C130.56 255.742 130.56 255.742 130.56 255.718C130.56 255.576 130.56 255.434 130.56 255.315L130.465 255.268Z" fill="url(#paint4_linear_501_1280)"></path> <path d="M118.247 241.627C123.324 244.545 127.404 251.662 127.404 257.474C127.404 263.31 123.253 265.635 118.199 262.717C113.123 259.799 109.042 252.706 109.042 246.869C109.042 241.033 113.194 238.685 118.247 241.627Z" fill="url(#paint5_linear_501_1280)"></path> <path d="M167.854 204.594C167.854 204.451 167.854 204.309 167.854 204.143C167.854 204.072 167.854 204 167.854 203.929C167.854 203.906 167.854 203.882 167.854 203.834C167.854 203.787 167.854 203.739 167.854 203.668C167.854 203.526 167.83 203.36 167.806 203.218C167.806 203.075 167.759 202.909 167.735 202.767C167.735 202.624 167.688 202.482 167.664 202.34C167.64 202.174 167.593 202.031 167.569 201.865C167.569 201.818 167.545 201.747 167.522 201.699C167.522 201.676 167.522 201.628 167.522 201.604C167.522 201.533 167.498 201.462 167.474 201.391C167.427 201.225 167.403 201.059 167.355 200.893C167.332 200.774 167.284 200.655 167.261 200.537C167.261 200.537 167.261 200.489 167.261 200.466C167.261 200.466 167.261 200.418 167.261 200.394C167.213 200.228 167.166 200.086 167.118 199.92C167.071 199.754 167 199.612 166.952 199.445C166.952 199.422 166.952 199.398 166.928 199.351C166.928 199.351 166.928 199.303 166.905 199.279C166.857 199.185 166.833 199.09 166.786 198.995C166.739 198.852 166.667 198.686 166.596 198.544C166.549 198.449 166.501 198.33 166.454 198.236C166.454 198.236 166.454 198.188 166.43 198.188C166.43 198.188 166.43 198.141 166.407 198.117C166.335 197.975 166.264 197.832 166.193 197.666C166.122 197.5 166.027 197.334 165.956 197.192C165.956 197.168 165.932 197.144 165.908 197.121C165.908 197.097 165.885 197.049 165.861 197.026C165.79 196.907 165.742 196.765 165.671 196.646C165.576 196.48 165.505 196.338 165.41 196.172C165.363 196.1 165.315 196.006 165.268 195.934C165.268 195.911 165.244 195.863 165.22 195.839C165.149 195.697 165.054 195.578 164.959 195.436C164.841 195.246 164.722 195.033 164.58 194.843C164.58 194.819 164.532 194.772 164.532 194.748C164.343 194.463 164.153 194.203 163.963 193.918C163.821 193.728 163.702 193.562 163.56 193.372C163.441 193.23 163.322 193.088 163.227 192.945C163.109 192.803 162.99 192.66 162.872 192.518C162.753 192.376 162.634 192.257 162.516 192.115C162.516 192.115 162.468 192.067 162.445 192.044C162.445 192.044 162.397 191.996 162.373 191.972C162.279 191.878 162.207 191.783 162.113 191.712C161.994 191.593 161.852 191.451 161.733 191.332C161.685 191.285 161.662 191.261 161.614 191.213C161.591 191.19 161.543 191.166 161.519 191.118C161.448 191.071 161.401 191 161.33 190.952C161.187 190.834 161.069 190.715 160.926 190.597C160.855 190.549 160.808 190.502 160.737 190.454C160.713 190.43 160.665 190.407 160.642 190.383C160.594 190.336 160.547 190.312 160.499 190.264C160.357 190.169 160.238 190.051 160.096 189.956C160.001 189.885 159.906 189.814 159.811 189.742C159.811 189.742 159.764 189.719 159.764 189.695C159.764 189.695 159.74 189.671 159.716 189.648C159.598 189.553 159.455 189.481 159.337 189.387C159.218 189.315 159.076 189.221 158.957 189.149C158.933 189.149 158.886 189.126 158.862 189.102C158.767 189.054 158.673 188.983 158.578 188.936C158.459 188.865 158.317 188.793 158.198 188.746C158.127 188.699 158.032 188.675 157.961 188.627C157.961 188.627 157.913 188.627 157.89 188.604C157.866 188.604 157.842 188.604 157.818 188.58C157.7 188.533 157.581 188.461 157.463 188.414C157.344 188.366 157.225 188.319 157.083 188.272C157.083 188.272 157.036 188.272 157.012 188.272H156.964C156.87 188.248 156.798 188.224 156.703 188.2C156.585 188.153 156.443 188.129 156.324 188.106C156.253 188.106 156.205 188.082 156.134 188.058C156.11 188.058 156.087 188.058 156.063 188.058C156.015 188.058 155.992 188.058 155.944 188.034C155.802 188.011 155.683 187.987 155.541 187.963C155.47 187.963 155.375 187.963 155.304 187.939C155.28 187.939 155.256 187.939 155.209 187.939C155.185 187.939 155.161 187.939 155.138 187.939C154.995 187.939 154.853 187.939 154.711 187.939C154.639 187.939 154.592 187.939 154.521 187.939C154.473 187.939 154.426 187.939 154.379 187.939C154.331 187.939 154.284 187.939 154.236 187.939C154.046 187.939 153.88 187.987 153.714 188.011C153.667 188.011 153.643 188.011 153.596 188.034C153.43 188.082 153.24 188.129 153.074 188.177C153.074 188.177 153.05 188.177 153.026 188.177C152.789 188.272 152.552 188.366 152.315 188.509L149.23 190.288C149.444 190.169 149.681 190.051 149.942 189.956C150.132 189.885 150.322 189.837 150.512 189.79C150.559 189.79 150.583 189.79 150.63 189.766C150.844 189.719 151.081 189.695 151.318 189.671C151.366 189.671 151.413 189.671 151.461 189.671C151.698 189.671 151.911 189.671 152.149 189.671C152.172 189.671 152.196 189.671 152.243 189.671C152.481 189.695 152.742 189.742 153.003 189.79C153.026 189.79 153.05 189.79 153.074 189.79C153.335 189.837 153.619 189.932 153.88 190.027H153.928C154.212 190.122 154.497 190.241 154.806 190.383C154.806 190.383 154.853 190.383 154.853 190.407C155.161 190.549 155.446 190.691 155.754 190.881C156.063 191.071 156.371 191.261 156.68 191.474C156.68 191.474 156.727 191.498 156.727 191.522C157.012 191.712 157.297 191.925 157.558 192.139C157.581 192.162 157.629 192.186 157.652 192.21C157.913 192.423 158.174 192.66 158.435 192.898C158.459 192.921 158.506 192.945 158.53 192.993C158.791 193.23 159.052 193.491 159.289 193.752C159.289 193.752 159.337 193.799 159.361 193.823C159.622 194.108 159.882 194.392 160.143 194.701C160.642 195.294 161.092 195.934 161.543 196.599C161.662 196.788 161.78 196.978 161.923 197.192C162.018 197.358 162.136 197.524 162.231 197.69C162.279 197.761 162.326 197.856 162.373 197.927C162.54 198.212 162.682 198.497 162.848 198.781C162.848 198.805 162.872 198.852 162.895 198.876C163.061 199.232 163.251 199.588 163.394 199.944V199.991C163.536 200.347 163.678 200.703 163.821 201.059C163.821 201.059 163.821 201.106 163.844 201.13C163.987 201.486 164.105 201.865 164.2 202.221C164.2 202.221 164.2 202.269 164.2 202.292C164.295 202.648 164.39 203.004 164.485 203.336C164.485 203.36 164.485 203.407 164.485 203.431C164.556 203.787 164.651 204.166 164.698 204.522C164.746 204.878 164.793 205.234 164.817 205.614C164.817 205.637 164.817 205.661 164.817 205.709C164.841 206.064 164.864 206.42 164.864 206.776C164.864 207.132 164.864 207.464 164.817 207.773C164.817 207.796 164.817 207.82 164.817 207.867C164.793 208.152 164.746 208.461 164.698 208.721C164.698 208.769 164.698 208.793 164.698 208.84C164.651 209.101 164.58 209.362 164.509 209.599C164.509 209.647 164.485 209.694 164.461 209.742C164.39 209.979 164.295 210.192 164.2 210.406C164.2 210.406 164.2 210.453 164.176 210.477C164.058 210.714 163.939 210.928 163.797 211.141C163.797 211.165 163.749 211.189 163.749 211.212C163.631 211.379 163.512 211.545 163.394 211.687C163.346 211.734 163.299 211.782 163.251 211.853C163.133 211.972 163.038 212.09 162.919 212.185C162.872 212.233 162.824 212.28 162.777 212.304C162.611 212.446 162.445 212.565 162.255 212.683L165.339 210.904C165.529 210.785 165.695 210.667 165.861 210.524C165.908 210.477 165.956 210.43 166.003 210.406C166.122 210.311 166.24 210.192 166.359 210.074C166.406 210.026 166.454 209.979 166.501 209.908C166.62 209.765 166.739 209.599 166.857 209.433C166.857 209.409 166.905 209.386 166.905 209.362C167.023 209.172 167.142 208.959 167.261 208.745C167.261 208.745 167.261 208.698 167.284 208.674C167.355 208.532 167.403 208.389 167.474 208.247C167.498 208.176 167.521 208.105 167.545 208.01C167.545 207.962 167.569 207.915 167.593 207.867C167.593 207.82 167.616 207.796 167.64 207.749C167.688 207.606 167.735 207.44 167.759 207.274C167.759 207.227 167.759 207.156 167.782 207.108C167.782 207.061 167.782 207.037 167.782 206.99C167.782 206.942 167.782 206.871 167.806 206.824C167.83 206.681 167.854 206.539 167.877 206.397C167.877 206.325 167.877 206.23 167.901 206.136C167.901 206.112 167.901 206.088 167.901 206.041C167.901 206.017 167.901 205.969 167.901 205.946C167.901 205.803 167.901 205.661 167.925 205.519C167.925 205.376 167.925 205.234 167.925 205.068C167.925 204.902 167.925 204.76 167.925 204.617L167.854 204.594Z" fill="url(#paint6_linear_501_1280)"></path> <path d="M155.635 190.929C160.712 193.847 164.793 200.964 164.793 206.776C164.793 212.612 160.641 214.937 155.588 212.019C150.511 209.101 146.431 202.008 146.431 196.171C146.431 190.335 150.582 187.987 155.635 190.929Z" fill="url(#paint7_linear_501_1280)"></path> <path d="M215.895 336.616C215.895 336.474 215.895 336.331 215.895 336.165C215.895 336.094 215.895 336.023 215.895 335.952C215.895 335.928 215.895 335.904 215.895 335.857C215.895 335.81 215.895 335.762 215.895 335.691C215.895 335.549 215.871 335.383 215.847 335.24C215.847 335.098 215.8 334.932 215.776 334.789C215.776 334.647 215.729 334.505 215.705 334.362C215.681 334.196 215.634 334.054 215.61 333.888C215.61 333.841 215.586 333.769 215.563 333.722C215.563 333.698 215.563 333.651 215.563 333.627C215.563 333.556 215.539 333.485 215.515 333.413C215.468 333.247 215.444 333.081 215.396 332.915C215.373 332.797 215.325 332.678 215.302 332.559C215.302 332.559 215.302 332.512 215.302 332.488C215.302 332.488 215.302 332.441 215.302 332.417C215.254 332.251 215.207 332.109 215.159 331.943C215.112 331.777 215.064 331.634 214.993 331.468C214.993 331.444 214.993 331.421 214.969 331.373C214.969 331.35 214.969 331.326 214.946 331.302C214.898 331.207 214.874 331.112 214.827 331.017C214.78 330.875 214.708 330.709 214.637 330.567C214.59 330.472 214.542 330.353 214.495 330.258C214.495 330.258 214.495 330.211 214.471 330.211C214.471 330.211 214.471 330.163 214.448 330.14C214.376 329.997 214.305 329.855 214.234 329.689C214.163 329.523 214.068 329.357 213.997 329.214C213.997 329.191 213.973 329.167 213.949 329.143C213.949 329.119 213.926 329.072 213.902 329.048C213.831 328.93 213.783 328.787 213.712 328.669C213.617 328.503 213.546 328.36 213.451 328.194C213.404 328.123 213.356 328.028 213.309 327.957C213.309 327.933 213.285 327.886 213.261 327.862C213.19 327.72 213.095 327.601 213 327.459C212.882 327.269 212.763 327.056 212.621 326.866C212.621 326.842 212.573 326.795 212.573 326.771C212.384 326.486 212.194 326.225 212.004 325.94C211.862 325.751 211.743 325.585 211.601 325.395C211.482 325.253 211.363 325.11 211.268 324.968C211.15 324.825 211.031 324.683 210.913 324.565C210.794 324.422 210.675 324.304 210.557 324.161C210.557 324.161 210.509 324.114 210.486 324.09C210.486 324.09 210.438 324.043 210.414 324.019C210.32 323.924 210.248 323.829 210.154 323.758C210.035 323.639 209.893 323.497 209.774 323.378C209.726 323.331 209.703 323.307 209.655 323.26C209.632 323.236 209.584 323.212 209.56 323.165C209.489 323.117 209.442 323.046 209.371 322.999C209.228 322.88 209.11 322.762 208.967 322.643C208.896 322.595 208.849 322.548 208.778 322.501C208.754 322.477 208.706 322.453 208.683 322.429C208.635 322.382 208.588 322.358 208.54 322.311C208.398 322.216 208.279 322.097 208.137 322.002C208.042 321.931 207.947 321.86 207.852 321.789C207.852 321.789 207.805 321.765 207.805 321.741C207.805 321.741 207.781 321.718 207.757 321.694C207.639 321.599 207.496 321.528 207.378 321.433C207.259 321.362 207.117 321.267 206.998 321.196C206.975 321.196 206.927 321.172 206.903 321.148C206.808 321.101 206.714 321.03 206.619 320.982C206.5 320.911 206.358 320.84 206.239 320.792C206.168 320.745 206.073 320.721 206.002 320.674C206.002 320.674 205.954 320.674 205.931 320.65C205.931 320.65 205.883 320.65 205.859 320.626C205.741 320.579 205.622 320.508 205.504 320.46C205.385 320.413 205.266 320.365 205.124 320.318C205.124 320.318 205.077 320.318 205.053 320.318H205.005C204.911 320.294 204.839 320.271 204.744 320.247C204.626 320.199 204.484 320.176 204.365 320.152C204.294 320.152 204.246 320.128 204.175 320.104C204.151 320.104 204.128 320.104 204.104 320.104C204.056 320.104 204.033 320.104 203.985 320.081C203.843 320.057 203.724 320.033 203.582 320.01C203.511 320.01 203.416 320.01 203.345 319.986C203.321 319.986 203.297 319.986 203.25 319.986C203.226 319.986 203.202 319.986 203.179 319.986C203.036 319.986 202.894 319.986 202.752 319.986C202.68 319.986 202.633 319.986 202.562 319.986C202.514 319.986 202.467 319.986 202.42 319.986C202.372 319.986 202.325 319.986 202.277 319.986C202.087 319.986 201.921 320.033 201.755 320.057C201.708 320.057 201.684 320.057 201.637 320.081C201.471 320.128 201.281 320.176 201.115 320.223C201.115 320.223 201.091 320.223 201.067 320.223C200.83 320.318 200.593 320.413 200.356 320.555L197.271 322.334C197.485 322.216 197.722 322.097 197.983 322.002C198.173 321.931 198.363 321.884 198.553 321.836C198.6 321.836 198.624 321.836 198.671 321.813C198.885 321.765 199.122 321.741 199.359 321.718C199.407 321.718 199.454 321.718 199.502 321.718C199.739 321.718 199.952 321.718 200.19 321.718C200.213 321.718 200.237 321.718 200.284 321.718C200.522 321.741 200.783 321.789 201.044 321.836C201.067 321.836 201.091 321.836 201.115 321.836C201.376 321.884 201.66 321.979 201.921 322.074H201.969C202.253 322.168 202.538 322.287 202.847 322.429C202.847 322.429 202.894 322.429 202.894 322.453C203.202 322.595 203.487 322.738 203.796 322.928C204.104 323.117 204.412 323.307 204.721 323.521C204.721 323.521 204.768 323.544 204.768 323.568C205.053 323.758 205.338 323.971 205.599 324.185C205.622 324.209 205.67 324.232 205.693 324.256C205.954 324.47 206.215 324.707 206.476 324.944C206.5 324.968 206.548 324.992 206.571 325.039C206.832 325.276 207.093 325.537 207.33 325.798C207.33 325.798 207.378 325.846 207.402 325.869C207.663 326.154 207.923 326.439 208.184 326.747C208.683 327.34 209.133 327.981 209.584 328.645C209.703 328.835 209.821 329.025 209.964 329.238C210.059 329.404 210.177 329.57 210.272 329.736C210.32 329.807 210.367 329.902 210.414 329.974C210.581 330.258 210.723 330.543 210.889 330.828C210.889 330.851 210.913 330.899 210.936 330.922C211.102 331.278 211.292 331.634 211.435 331.99V332.038C211.577 332.393 211.719 332.749 211.862 333.105C211.862 333.105 211.862 333.153 211.885 333.176C212.028 333.532 212.146 333.912 212.241 334.268C212.241 334.268 212.241 334.315 212.241 334.339C212.336 334.695 212.431 335.05 212.526 335.383C212.526 335.406 212.526 335.454 212.526 335.477C212.597 335.833 212.692 336.213 212.739 336.569C212.787 336.925 212.834 337.28 212.858 337.66C212.858 337.684 212.858 337.707 212.858 337.755C212.882 338.111 212.905 338.467 212.905 338.823C212.905 339.178 212.905 339.51 212.858 339.819C212.858 339.843 212.858 339.866 212.858 339.914C212.834 340.198 212.787 340.507 212.739 340.768C212.739 340.815 212.739 340.839 212.739 340.886C212.692 341.147 212.621 341.408 212.55 341.646C212.55 341.693 212.526 341.741 212.502 341.788C212.431 342.025 212.336 342.239 212.241 342.452C212.241 342.452 212.241 342.5 212.217 342.523C212.099 342.761 211.98 342.974 211.838 343.188C211.838 343.211 211.79 343.235 211.79 343.259C211.672 343.425 211.553 343.591 211.435 343.733C211.387 343.781 211.34 343.828 211.292 343.899C211.174 344.018 211.079 344.137 210.936 344.232C210.889 344.279 210.841 344.326 210.794 344.35C210.628 344.492 210.462 344.611 210.272 344.73L213.356 342.95C213.546 342.832 213.712 342.713 213.878 342.571C213.926 342.523 213.973 342.476 214.02 342.452C214.139 342.357 214.258 342.239 214.353 342.12C214.4 342.073 214.448 342.025 214.495 341.954C214.614 341.812 214.732 341.646 214.851 341.48C214.851 341.456 214.898 341.432 214.898 341.408C215.017 341.219 215.136 341.005 215.254 340.792C215.254 340.792 215.254 340.744 215.278 340.72C215.349 340.578 215.396 340.436 215.468 340.293C215.491 340.222 215.515 340.151 215.539 340.056C215.539 340.009 215.562 339.961 215.586 339.914C215.586 339.866 215.61 339.843 215.634 339.795C215.681 339.653 215.729 339.487 215.752 339.321C215.752 339.273 215.752 339.202 215.776 339.155C215.776 339.107 215.776 339.083 215.776 339.036C215.776 338.989 215.776 338.917 215.8 338.87C215.823 338.728 215.847 338.585 215.871 338.443C215.871 338.372 215.871 338.277 215.895 338.182C215.895 338.158 215.895 338.134 215.895 338.087C215.895 338.063 215.895 338.016 215.895 337.992C215.895 337.85 215.895 337.707 215.918 337.565C215.918 337.423 215.918 337.28 215.918 337.114C215.918 336.948 215.918 336.806 215.918 336.664L215.895 336.616Z" fill="url(#paint8_linear_501_1280)"></path> <path d="M203.677 322.975C208.753 325.893 212.834 333.01 212.834 338.822C212.834 344.658 208.682 346.983 203.629 344.065C198.552 341.147 194.472 334.054 194.472 328.218C194.472 322.382 198.623 320.033 203.677 322.975Z" fill="url(#paint9_linear_501_1280)"></path> <path d="M268.537 166.303C268.537 166.161 268.537 166.019 268.537 165.853C268.537 165.782 268.537 165.71 268.537 165.639C268.537 165.615 268.537 165.592 268.537 165.544C268.537 165.497 268.537 165.449 268.537 165.378C268.537 165.236 268.514 165.07 268.49 164.928C268.49 164.785 268.442 164.619 268.419 164.477C268.419 164.334 268.371 164.192 268.347 164.05C268.324 163.884 268.276 163.741 268.253 163.575C268.253 163.528 268.229 163.457 268.205 163.409C268.205 163.385 268.205 163.338 268.205 163.314C268.205 163.243 268.181 163.172 268.158 163.101C268.11 162.935 268.086 162.769 268.039 162.603C268.015 162.484 267.968 162.365 267.944 162.247C267.944 162.247 267.944 162.199 267.944 162.176C267.944 162.176 267.944 162.128 267.944 162.104C267.897 161.938 267.849 161.796 267.802 161.63C267.754 161.464 267.707 161.321 267.636 161.155C267.636 161.132 267.636 161.108 267.612 161.061C267.612 161.061 267.612 161.013 267.588 160.989C267.541 160.894 267.517 160.8 267.47 160.705C267.422 160.562 267.351 160.396 267.28 160.254C267.232 160.159 267.185 160.04 267.138 159.946C267.138 159.946 267.138 159.898 267.114 159.898C267.114 159.898 267.114 159.851 267.09 159.827C267.019 159.685 266.948 159.542 266.877 159.376C266.805 159.21 266.711 159.044 266.639 158.902C266.639 158.878 266.616 158.854 266.592 158.83C266.592 158.807 266.568 158.759 266.544 158.736C266.473 158.617 266.426 158.475 266.355 158.356C266.26 158.19 266.189 158.048 266.094 157.882C266.046 157.81 265.999 157.715 265.951 157.644C265.951 157.621 265.928 157.573 265.904 157.549C265.833 157.407 265.738 157.288 265.643 157.146C265.524 156.956 265.406 156.743 265.263 156.553C265.263 156.529 265.216 156.482 265.216 156.458C265.026 156.173 264.836 155.912 264.646 155.628C264.504 155.438 264.386 155.272 264.243 155.082C264.125 154.94 264.006 154.797 263.911 154.655C263.792 154.513 263.674 154.37 263.555 154.228C263.437 154.086 263.318 153.967 263.199 153.825C263.199 153.825 263.152 153.777 263.128 153.754C263.128 153.754 263.081 153.706 263.057 153.682C262.962 153.588 262.891 153.493 262.796 153.421C262.677 153.303 262.535 153.161 262.417 153.042C262.369 152.994 262.345 152.971 262.298 152.923C262.274 152.9 262.227 152.876 262.203 152.828C262.132 152.781 262.084 152.71 262.013 152.662C261.871 152.544 261.752 152.425 261.61 152.306C261.539 152.259 261.491 152.212 261.42 152.164C261.396 152.14 261.349 152.117 261.325 152.093C261.278 152.046 261.23 152.022 261.183 151.974C261.041 151.879 260.922 151.761 260.78 151.666C260.685 151.595 260.59 151.524 260.495 151.452C260.495 151.452 260.447 151.429 260.447 151.405C260.447 151.405 260.424 151.381 260.4 151.358C260.281 151.263 260.139 151.191 260.02 151.097C259.902 151.025 259.759 150.931 259.641 150.859C259.617 150.859 259.57 150.836 259.546 150.812C259.451 150.764 259.356 150.693 259.261 150.646C259.143 150.575 259 150.503 258.882 150.456C258.81 150.409 258.716 150.385 258.644 150.337C258.644 150.337 258.597 150.337 258.573 150.314C258.573 150.314 258.526 150.314 258.502 150.29C258.383 150.242 258.265 150.171 258.146 150.124C258.028 150.076 257.909 150.029 257.767 149.982C257.767 149.982 257.719 149.982 257.695 149.982H257.648C257.553 149.958 257.482 149.934 257.387 149.91C257.268 149.863 257.126 149.839 257.008 149.815C256.936 149.815 256.889 149.792 256.818 149.768C256.794 149.768 256.77 149.768 256.747 149.768C256.699 149.768 256.675 149.768 256.628 149.744C256.486 149.721 256.367 149.697 256.225 149.673C256.153 149.673 256.059 149.673 255.987 149.649C255.964 149.649 255.94 149.649 255.892 149.649C255.869 149.649 255.845 149.649 255.821 149.649C255.679 149.649 255.537 149.649 255.394 149.649C255.323 149.649 255.276 149.649 255.204 149.649C255.157 149.649 255.11 149.649 255.062 149.649C255.015 149.649 254.967 149.649 254.92 149.649C254.73 149.649 254.564 149.697 254.398 149.721C254.35 149.721 254.327 149.721 254.279 149.744C254.113 149.792 253.923 149.839 253.757 149.887C253.757 149.887 253.734 149.887 253.71 149.887C253.473 149.982 253.235 150.076 252.998 150.219L249.914 151.998C250.128 151.879 250.365 151.761 250.626 151.666C250.816 151.595 251.005 151.547 251.195 151.5C251.243 151.5 251.266 151.5 251.314 151.476C251.527 151.429 251.765 151.405 252.002 151.381C252.049 151.381 252.097 151.381 252.144 151.381C252.381 151.381 252.595 151.381 252.832 151.381C252.856 151.381 252.88 151.381 252.927 151.381C253.164 151.405 253.425 151.452 253.686 151.5C253.71 151.5 253.734 151.5 253.757 151.5C254.018 151.547 254.303 151.642 254.564 151.737H254.611C254.896 151.832 255.181 151.951 255.489 152.093C255.489 152.093 255.537 152.093 255.537 152.117C255.845 152.259 256.13 152.401 256.438 152.591C256.747 152.781 257.055 152.971 257.363 153.184C257.363 153.184 257.411 153.208 257.411 153.232C257.695 153.421 257.98 153.635 258.241 153.849C258.265 153.872 258.312 153.896 258.336 153.92C258.597 154.133 258.858 154.37 259.119 154.608C259.143 154.631 259.19 154.655 259.214 154.703C259.475 154.94 259.736 155.201 259.973 155.462C259.973 155.462 260.02 155.509 260.044 155.533C260.305 155.818 260.566 156.102 260.827 156.411C261.325 157.004 261.776 157.644 262.227 158.309C262.345 158.498 262.464 158.688 262.606 158.902C262.701 159.068 262.82 159.234 262.915 159.4C262.962 159.471 263.01 159.566 263.057 159.637C263.223 159.922 263.365 160.206 263.532 160.491C263.532 160.515 263.555 160.562 263.579 160.586C263.745 160.942 263.935 161.298 264.077 161.654V161.701C264.219 162.057 264.362 162.413 264.504 162.769C264.504 162.769 264.504 162.816 264.528 162.84C264.67 163.196 264.789 163.575 264.884 163.931C264.884 163.931 264.884 163.979 264.884 164.002C264.979 164.358 265.074 164.714 265.168 165.046C265.168 165.07 265.168 165.117 265.168 165.141C265.24 165.497 265.335 165.876 265.382 166.232C265.429 166.588 265.477 166.944 265.501 167.324C265.501 167.347 265.501 167.371 265.501 167.418C265.524 167.774 265.548 168.13 265.548 168.486C265.548 168.842 265.548 169.174 265.501 169.482C265.501 169.506 265.501 169.53 265.501 169.577C265.477 169.862 265.429 170.17 265.382 170.431C265.382 170.479 265.382 170.503 265.382 170.55C265.335 170.811 265.263 171.072 265.192 171.309C265.192 171.357 265.168 171.404 265.145 171.452C265.074 171.689 264.979 171.902 264.884 172.116C264.884 172.116 264.884 172.163 264.86 172.187C264.741 172.424 264.623 172.638 264.48 172.851C264.48 172.875 264.433 172.899 264.433 172.922C264.314 173.088 264.196 173.255 264.077 173.397C264.03 173.444 263.982 173.492 263.935 173.563C263.816 173.682 263.721 173.8 263.579 173.895C263.532 173.943 263.484 173.99 263.437 174.014C263.271 174.156 263.104 174.275 262.915 174.393L265.999 172.614C266.189 172.495 266.355 172.377 266.521 172.234C266.568 172.187 266.616 172.14 266.663 172.116C266.782 172.021 266.9 171.902 267.019 171.784C267.066 171.736 267.114 171.689 267.161 171.618C267.28 171.475 267.398 171.309 267.517 171.143C267.517 171.119 267.565 171.096 267.565 171.072C267.683 170.882 267.802 170.669 267.92 170.455C267.92 170.455 267.92 170.408 267.944 170.384C268.015 170.242 268.063 170.099 268.134 169.957C268.158 169.886 268.181 169.815 268.205 169.72C268.205 169.672 268.229 169.625 268.253 169.577C268.253 169.53 268.276 169.506 268.3 169.459C268.347 169.316 268.395 169.15 268.419 168.984C268.419 168.937 268.419 168.866 268.442 168.818C268.442 168.771 268.442 168.747 268.442 168.7C268.442 168.652 268.442 168.581 268.466 168.534C268.49 168.391 268.513 168.249 268.537 168.106C268.537 168.035 268.537 167.94 268.561 167.846C268.561 167.822 268.561 167.798 268.561 167.751C268.561 167.727 268.561 167.679 268.561 167.656C268.561 167.513 268.561 167.371 268.585 167.229C268.585 167.086 268.585 166.944 268.585 166.778C268.585 166.612 268.585 166.47 268.585 166.327L268.537 166.303Z" fill="url(#paint10_linear_501_1280)"></path> <path d="M256.319 152.662C261.396 155.58 265.476 162.698 265.476 168.51C265.476 174.346 261.325 176.671 256.272 173.753C251.195 170.835 247.114 163.741 247.114 157.905C247.114 152.069 251.266 149.721 256.319 152.662Z" fill="url(#paint11_linear_501_1280)"></path> <path d="M299.757 346.082C299.757 345.94 299.757 345.797 299.757 345.631C299.757 345.56 299.757 345.489 299.757 345.418C299.757 345.394 299.757 345.37 299.757 345.323C299.757 345.275 299.757 345.228 299.757 345.157C299.757 345.014 299.733 344.848 299.71 344.706C299.71 344.564 299.662 344.398 299.638 344.255C299.638 344.113 299.591 343.971 299.567 343.828C299.543 343.662 299.496 343.52 299.472 343.354C299.472 343.306 299.449 343.235 299.425 343.188C299.425 343.164 299.425 343.117 299.425 343.093C299.425 343.022 299.401 342.951 299.377 342.879C299.33 342.713 299.306 342.547 299.259 342.381C299.235 342.263 299.188 342.144 299.164 342.025C299.164 342.025 299.164 341.978 299.164 341.954C299.164 341.954 299.164 341.907 299.164 341.883C299.116 341.717 299.069 341.575 299.022 341.408C298.974 341.242 298.927 341.1 298.855 340.934C298.855 340.91 298.855 340.887 298.832 340.839C298.832 340.815 298.832 340.792 298.808 340.768C298.761 340.673 298.737 340.578 298.689 340.483C298.642 340.341 298.571 340.175 298.5 340.032C298.452 339.938 298.405 339.819 298.357 339.724C298.357 339.724 298.357 339.677 298.334 339.677C298.334 339.677 298.333 339.629 298.31 339.605C298.239 339.463 298.167 339.321 298.096 339.155C298.025 338.989 297.93 338.823 297.859 338.68C297.859 338.657 297.835 338.633 297.812 338.609C297.812 338.585 297.788 338.538 297.764 338.514C297.693 338.396 297.646 338.253 297.574 338.135C297.479 337.969 297.408 337.826 297.313 337.66C297.266 337.589 297.219 337.494 297.171 337.423C297.171 337.399 297.147 337.352 297.124 337.328C297.052 337.186 296.958 337.067 296.863 336.925C296.744 336.735 296.625 336.521 296.483 336.332C296.483 336.308 296.436 336.26 296.436 336.237C296.246 335.952 296.056 335.691 295.866 335.406C295.724 335.217 295.605 335.05 295.463 334.861C295.344 334.718 295.226 334.576 295.131 334.434C295.012 334.291 294.894 334.149 294.775 334.007C294.656 333.864 294.538 333.746 294.419 333.603C294.419 333.603 294.372 333.556 294.348 333.532C294.348 333.532 294.3 333.485 294.277 333.461C294.182 333.366 294.111 333.271 294.016 333.2C293.897 333.081 293.755 332.939 293.636 332.82C293.589 332.773 293.565 332.749 293.518 332.702C293.494 332.678 293.446 332.654 293.423 332.607C293.352 332.56 293.304 332.488 293.233 332.441C293.091 332.322 292.972 332.204 292.83 332.085C292.758 332.038 292.711 331.99 292.64 331.943C292.616 331.919 292.569 331.895 292.545 331.872C292.497 331.824 292.45 331.8 292.403 331.753C292.26 331.658 292.142 331.539 291.999 331.445C291.904 331.373 291.809 331.302 291.715 331.231C291.715 331.231 291.667 331.207 291.667 331.184C291.667 331.184 291.643 331.16 291.62 331.136C291.501 331.041 291.359 330.97 291.24 330.875C291.122 330.804 290.979 330.709 290.861 330.638C290.837 330.638 290.789 330.614 290.766 330.59C290.671 330.543 290.576 330.472 290.481 330.424C290.362 330.353 290.22 330.282 290.101 330.235C290.03 330.187 289.935 330.163 289.864 330.116C289.864 330.116 289.817 330.116 289.793 330.092C289.769 330.092 289.745 330.092 289.722 330.069C289.603 330.021 289.485 329.95 289.366 329.902C289.247 329.855 289.129 329.808 288.986 329.76C288.986 329.76 288.939 329.76 288.915 329.76H288.868C288.773 329.736 288.702 329.713 288.607 329.689C288.488 329.641 288.346 329.618 288.227 329.594C288.156 329.594 288.109 329.57 288.037 329.547C288.014 329.547 287.99 329.547 287.966 329.547C287.919 329.547 287.895 329.547 287.848 329.523C287.705 329.499 287.587 329.475 287.444 329.452C287.373 329.452 287.278 329.452 287.207 329.428C287.183 329.428 287.16 329.428 287.112 329.428C287.088 329.428 287.065 329.428 287.041 329.428C286.899 329.428 286.756 329.428 286.614 329.428C286.543 329.428 286.495 329.428 286.424 329.428C286.377 329.428 286.329 329.428 286.282 329.428C286.234 329.428 286.187 329.428 286.14 329.428C285.95 329.428 285.784 329.475 285.618 329.499C285.57 329.499 285.546 329.499 285.499 329.523C285.333 329.57 285.143 329.618 284.977 329.665C284.977 329.665 284.953 329.665 284.93 329.665C284.692 329.76 284.455 329.855 284.218 329.997L281.134 331.777C281.347 331.658 281.585 331.539 281.845 331.445C282.035 331.373 282.225 331.326 282.415 331.278C282.462 331.278 282.486 331.278 282.533 331.255C282.747 331.207 282.984 331.184 283.221 331.16C283.269 331.16 283.316 331.16 283.364 331.16C283.601 331.16 283.815 331.16 284.052 331.16C284.076 331.16 284.099 331.16 284.147 331.16C284.384 331.184 284.645 331.231 284.906 331.278C284.93 331.278 284.953 331.278 284.977 331.278C285.238 331.326 285.523 331.421 285.784 331.516H285.831C286.116 331.611 286.4 331.729 286.709 331.872C286.709 331.872 286.756 331.872 286.756 331.895C287.065 332.038 287.349 332.18 287.658 332.37C287.966 332.56 288.275 332.749 288.583 332.963C288.583 332.963 288.631 332.987 288.631 333.01C288.915 333.2 289.2 333.414 289.461 333.627C289.485 333.651 289.532 333.675 289.556 333.698C289.817 333.912 290.078 334.149 290.339 334.386C290.362 334.41 290.41 334.434 290.434 334.481C290.694 334.718 290.955 334.979 291.193 335.24C291.193 335.24 291.24 335.288 291.264 335.311C291.525 335.596 291.786 335.881 292.047 336.189C292.545 336.782 292.996 337.423 293.446 338.063C293.565 338.253 293.684 338.443 293.826 338.657C293.921 338.823 294.04 338.989 294.134 339.155C294.182 339.226 294.229 339.321 294.277 339.392C294.443 339.677 294.585 339.961 294.751 340.246C294.751 340.27 294.775 340.317 294.799 340.341C294.965 340.697 295.155 341.053 295.297 341.408V341.456C295.439 341.812 295.582 342.168 295.724 342.523C295.724 342.547 295.724 342.571 295.748 342.595C295.89 342.951 296.009 343.33 296.103 343.686C296.103 343.686 296.103 343.733 296.103 343.757C296.198 344.113 296.293 344.469 296.388 344.801C296.388 344.825 296.388 344.872 296.388 344.896C296.459 345.252 296.554 345.631 296.602 345.987C296.649 346.343 296.697 346.699 296.72 347.078C296.72 347.102 296.72 347.126 296.72 347.173C296.744 347.529 296.768 347.885 296.768 348.241C296.768 348.597 296.768 348.929 296.72 349.237C296.72 349.261 296.72 349.285 296.72 349.332C296.697 349.617 296.649 349.925 296.602 350.186C296.602 350.234 296.602 350.257 296.602 350.305C296.554 350.566 296.483 350.827 296.412 351.064C296.412 351.111 296.388 351.159 296.364 351.206C296.293 351.444 296.198 351.657 296.103 351.871C296.103 351.871 296.103 351.918 296.08 351.942C295.961 352.179 295.843 352.393 295.7 352.606C295.7 352.63 295.653 352.654 295.653 352.677C295.534 352.843 295.415 353.009 295.297 353.152C295.249 353.199 295.202 353.247 295.155 353.318C295.036 353.436 294.941 353.555 294.799 353.65C294.751 353.697 294.704 353.745 294.656 353.769C294.49 353.911 294.324 354.03 294.134 354.148L297.218 352.369C297.408 352.25 297.574 352.132 297.74 351.989C297.788 351.942 297.835 351.894 297.883 351.871C298.001 351.776 298.12 351.657 298.239 351.539C298.286 351.491 298.333 351.444 298.381 351.372C298.5 351.23 298.618 351.064 298.737 350.898C298.737 350.874 298.784 350.851 298.784 350.827C298.903 350.637 299.021 350.423 299.14 350.21C299.14 350.21 299.14 350.163 299.164 350.139C299.235 349.996 299.282 349.854 299.354 349.712C299.377 349.641 299.401 349.569 299.425 349.475C299.425 349.427 299.449 349.38 299.472 349.332C299.472 349.285 299.496 349.261 299.52 349.214C299.567 349.071 299.615 348.905 299.638 348.739C299.638 348.692 299.638 348.621 299.662 348.573C299.662 348.526 299.662 348.502 299.662 348.454C299.662 348.407 299.662 348.336 299.686 348.288C299.71 348.146 299.733 348.004 299.757 347.861C299.757 347.79 299.757 347.695 299.781 347.6C299.781 347.577 299.781 347.553 299.781 347.505C299.781 347.482 299.781 347.434 299.781 347.411C299.781 347.268 299.781 347.126 299.804 346.984C299.804 346.841 299.804 346.699 299.804 346.533C299.804 346.367 299.804 346.224 299.804 346.082H299.757Z" fill="url(#paint12_linear_501_1280)"></path> <path d="M287.515 332.417C292.592 335.335 296.673 342.452 296.673 348.265C296.673 354.101 292.521 356.425 287.468 353.507C282.391 350.589 278.311 343.496 278.311 337.66C278.311 331.824 282.462 329.475 287.515 332.417Z" fill="url(#paint13_linear_501_1280)"></path> <path d="M60.0074 344.419L28.2255 317.019L60.0733 328.809L91.8772 356.21L60.0074 344.419Z" fill="url(#paint14_linear_501_1280)" stroke="black"></path> <path d="M63.8409 408.966L128.592 310.35L162.184 322.777L97.4102 421.393L63.8409 408.966Z" fill="url(#paint15_linear_501_1280)" stroke="black"></path> <path d="M166.583 280.456L127.515 246.792L159.36 258.581L198.428 292.245L166.583 280.456Z" fill="url(#paint16_linear_501_1280)" stroke="black"></path> <path d="M170.394 345.002L261.294 206.569L294.886 218.997L203.986 357.429L170.394 345.002Z" fill="url(#paint17_linear_501_1280)" stroke="black"></path> <path d="M294.384 233.846L304.316 106.815L337.896 119.238L327.941 246.269L294.384 233.846Z" fill="url(#paint18_linear_501_1280)" stroke="black"></path> <path d="M25.9048 316.339L59.4227 345.236L59.8543 345.608L60.1671 345.131L125.192 246.111L165.998 281.272L166.43 281.644L166.742 281.168L232.406 181.159L232.647 180.792L232.314 180.506L202.578 154.881L303.303 106.94L293.435 233.161L261.42 205.583L260.989 205.212L260.676 205.688L169.526 344.502L128.719 309.364L128.288 308.993L127.975 309.469L62.9737 408.466L0.658849 354.777L25.9048 316.339Z" fill="url(#paint19_linear_501_1280)" stroke="black"></path> <path d="M305.359 106.233L293.856 234.184L302.379 106L305.359 106.233Z" fill="white"></path> <path d="M262.352 206.777L169.631 345.253L259.86 205.147L262.352 206.777Z" fill="white"></path> <path d="M129.65 310.558L63.0781 409.217L127.158 308.905L129.65 310.558Z" fill="white"></path> <defs> <linearGradient id="paint0_linear_501_1280" x1="86.4329" y1="144.43" x2="105.198" y2="144.43" gradientUnits="userSpaceOnUse"> <stop stop-color="#6C8FFF"></stop> <stop offset="1" stop-color="#C2CFFF"></stop> </linearGradient> <linearGradient id="paint1_linear_501_1280" x1="83.752" y1="145.64" x2="102.114" y2="145.64" gradientUnits="userSpaceOnUse"> <stop stop-color="#264AA3"></stop> <stop offset="1" stop-color="#4663CE"></stop> </linearGradient> <linearGradient id="paint2_linear_501_1280" x1="37.6575" y1="229.266" x2="56.4229" y2="229.266" gradientUnits="userSpaceOnUse"> <stop stop-color="#EA931F"></stop> <stop offset="1" stop-color="#FFD524"></stop> </linearGradient> <linearGradient id="paint3_linear_501_1280" x1="34.9763" y1="230.453" x2="53.3384" y2="230.453" gradientUnits="userSpaceOnUse"> <stop stop-color="#D34F0D"></stop> <stop offset="1" stop-color="#E2871A"></stop> </linearGradient> <linearGradient id="paint4_linear_501_1280" x1="111.699" y1="250.974" x2="130.465" y2="250.974" gradientUnits="userSpaceOnUse"> <stop stop-color="#8AFFB9"></stop> <stop offset="1" stop-color="#55FF9A"></stop> </linearGradient> <linearGradient id="paint5_linear_501_1280" x1="109.018" y1="252.16" x2="127.381" y2="252.16" gradientUnits="userSpaceOnUse"> <stop stop-color="#32CC73"></stop> <stop offset="1" stop-color="#45D881"></stop> </linearGradient> <linearGradient id="paint6_linear_501_1280" x1="149.088" y1="200.276" x2="167.854" y2="200.276" gradientUnits="userSpaceOnUse"> <stop stop-color="#FF71D7"></stop> <stop offset="1" stop-color="#FFB6DE"></stop> </linearGradient> <linearGradient id="paint7_linear_501_1280" x1="146.407" y1="201.486" x2="164.769" y2="201.486" gradientUnits="userSpaceOnUse"> <stop stop-color="#AC44E2"></stop> <stop offset="1" stop-color="#C268FC"></stop> </linearGradient> <linearGradient id="paint8_linear_501_1280" x1="197.153" y1="332.322" x2="215.918" y2="332.322" gradientUnits="userSpaceOnUse"> <stop stop-color="#FF71D7"></stop> <stop offset="1" stop-color="#FFB6DE"></stop> </linearGradient> <linearGradient id="paint9_linear_501_1280" x1="194.472" y1="333.508" x2="212.834" y2="333.508" gradientUnits="userSpaceOnUse"> <stop stop-color="#ED4CB7"></stop> <stop offset="1" stop-color="#ED5AA4"></stop> </linearGradient> <linearGradient id="paint10_linear_501_1280" x1="249.795" y1="162.009" x2="268.561" y2="162.009" gradientUnits="userSpaceOnUse"> <stop stop-color="#90E05C"></stop> <stop offset="1" stop-color="#91FF4A"></stop> </linearGradient> <linearGradient id="paint11_linear_501_1280" x1="247.114" y1="163.219" x2="265.476" y2="163.219" gradientUnits="userSpaceOnUse"> <stop stop-color="#569E26"></stop> <stop offset="1" stop-color="#63B230"></stop> </linearGradient> <linearGradient id="paint12_linear_501_1280" x1="280.991" y1="341.764" x2="299.757" y2="341.764" gradientUnits="userSpaceOnUse"> <stop stop-color="#67B8F4"></stop> <stop offset="1" stop-color="#7BE3FF"></stop> </linearGradient> <linearGradient id="paint13_linear_501_1280" x1="278.311" y1="342.974" x2="296.673" y2="342.974" gradientUnits="userSpaceOnUse"> <stop stop-color="#135E7C"></stop> <stop offset="1" stop-color="#1A8FAA"></stop> </linearGradient> <linearGradient id="paint14_linear_501_1280" x1="66.9427" y1="300.446" x2="63.1201" y2="367.748" gradientUnits="userSpaceOnUse"> <stop stop-color="#FFD63C"></stop> <stop offset="1" stop-color="#FFF180"></stop> </linearGradient> <linearGradient id="paint15_linear_501_1280" x1="123.058" y1="269.322" x2="104.514" y2="447.631" gradientUnits="userSpaceOnUse"> <stop stop-color="#FFD63C"></stop> <stop offset="1" stop-color="#FFF180"></stop> </linearGradient> <linearGradient id="paint16_linear_501_1280" x1="170.593" y1="227.963" x2="166.032" y2="305.27" gradientUnits="userSpaceOnUse"> <stop stop-color="#FFD63C"></stop> <stop offset="1" stop-color="#FFF180"></stop> </linearGradient> <linearGradient id="paint17_linear_501_1280" x1="245.316" y1="151.204" x2="218.389" y2="392.366" gradientUnits="userSpaceOnUse"> <stop stop-color="#FFD63C"></stop> <stop offset="1" stop-color="#FFF180"></stop> </linearGradient> <linearGradient id="paint18_linear_501_1280" x1="320.623" y1="55.3997" x2="259.703" y2="263.734" gradientUnits="userSpaceOnUse"> <stop stop-color="#FFD63C"></stop> <stop offset="1" stop-color="#FFF180"></stop> </linearGradient> <linearGradient id="paint19_linear_501_1280" x1="18.7199" y1="379.074" x2="329.263" y2="138.972" gradientUnits="userSpaceOnUse"> <stop stop-color="#FBE94E"></stop> <stop offset="1" stop-color="#FFD43A"></stop> </linearGradient> </defs> </svg> 