<?xml version="1.0" encoding="UTF-8"?> <svg xmlns="http://www.w3.org/2000/svg" width="32" height="32" viewBox="0 0 32 32" fill="none"> <circle cx="16" cy="16" r="16" fill="black"></circle> <path d="M21.7524 16.7343C21.4649 16.3843 21.5472 16.2286 21.7524 15.9157C21.7561 15.9121 24.1287 12.7507 24.3732 11.6786L24.3747 11.6779C24.4962 11.2871 24.3747 11 23.7872 11H21.8435C21.3486 11 21.1205 11.2464 20.9983 11.5221C20.9983 11.5221 20.0086 13.8064 18.6086 15.2871C18.1567 15.715 17.9478 15.8521 17.7011 15.8521C17.5796 15.8521 17.3907 15.715 17.3907 15.3243V11.6779C17.3907 11.2093 17.2522 11 16.8426 11H13.7862C13.4758 11 13.2913 11.2186 13.2913 11.4221C13.2913 11.8664 13.9914 11.9686 14.0639 13.2186V15.9307C14.0639 16.525 13.9521 16.6343 13.7039 16.6343C13.0432 16.6343 11.4394 14.3407 10.489 11.7157C10.2972 11.2064 10.1097 11.0007 9.6112 11.0007H7.66669C7.11186 11.0007 7 11.2471 7 11.5229C7 12.01 7.66076 14.4321 10.0727 17.6321C11.6802 19.8164 13.9439 21 16.0033 21C17.2411 21 17.3922 20.7371 17.3922 20.285C17.3922 18.1979 17.2804 18.0007 17.9004 18.0007C18.1878 18.0007 18.6826 18.1379 19.8382 19.1914C21.159 20.4407 21.3761 21 22.1153 21H24.0591C24.6132 21 24.894 20.7371 24.7325 20.2186C24.3628 19.1279 21.865 16.8843 21.7524 16.7343Z" fill="white"></path> </svg> 