<?xml version="1.0" encoding="UTF-8"?> <svg xmlns="http://www.w3.org/2000/svg" width="45" height="37" viewBox="0 0 45 37" fill="none"> <path fill-rule="evenodd" clip-rule="evenodd" d="M3.09253 15.9283C15.1681 10.7067 23.2204 7.26427 27.2493 5.60119C38.7528 0.852539 41.1432 0.0275862 42.7011 0.000285816C43.0438 -0.00565603 43.8099 0.0786547 44.3062 0.478364C45.0424 1.07126 45.0466 2.35823 44.9649 3.21C44.3415 9.7107 41.6441 25.486 40.2719 32.7668C39.6911 35.8476 38.5478 36.8807 37.441 36.9817C35.0356 37.2014 33.209 35.4039 30.8791 33.8882C27.2334 31.5163 25.1738 30.0398 21.6349 27.7254C17.5452 25.0506 20.1964 23.5806 22.5271 21.178C23.1371 20.5493 33.7356 10.9815 33.9408 10.1135C33.9665 10.0049 33.9903 9.60021 33.7481 9.38663C33.5059 9.17304 33.1484 9.24595 32.8905 9.30408C32.5248 9.38647 26.7007 13.2071 15.4182 20.7657C13.765 21.8924 12.2677 22.4413 10.9261 22.4126C9.44703 22.381 6.60214 21.5827 4.48715 20.9003C1.89305 20.0635 -0.1687 19.6209 0.0109068 18.1997C0.104432 17.4592 1.13159 16.7022 3.09253 15.9283Z" fill="white"></path> </svg> 