<?xml version="1.0" encoding="UTF-8"?> <svg xmlns="http://www.w3.org/2000/svg" width="158" height="158" viewBox="0 0 158 158" fill="none"> <circle cx="79" cy="79" r="79" fill="url(#paint0_diamond_455_8547)"></circle> <path d="M30.4497 107.643L36.2715 104.488L35.5414 103.141L29.7196 106.295L30.4497 107.643Z" fill="black"></path> <path d="M28.7943 104.627L34.9023 102.07L34.3727 100.805L30.6293 102.372L32.9628 97.4368L32.5427 96.4333L26.4347 98.9902L26.968 100.264L30.6939 98.7044L28.3742 103.624L28.7943 104.627Z" fill="black"></path> <path d="M31.7287 93.5673L31.1365 91.2973L24.13 90.6712L24.5288 92.1998L30.1754 92.6723L30.2184 92.837L25.522 96.0075L25.9207 97.5361L31.7287 93.5673Z" fill="black"></path> <path d="M23.9486 89.3396L30.5257 88.5733L29.8141 82.4659L28.5457 82.6137L29.0799 87.1989L27.6235 87.3686L27.2371 84.0519L26.0532 84.1898L26.4397 87.5065L25.0397 87.6697L24.5164 83.1784L23.2479 83.3262L23.9486 89.3396Z" fill="black"></path> <path d="M28.0731 81.6797L29.5199 81.7207C29.7547 80.7811 29.9812 79.8033 30.0134 78.6686C30.0797 76.3331 29.1239 75.3313 27.9987 75.2993C26.8357 75.2663 26.2974 76.2257 25.9369 78.2596C25.6778 79.719 25.5701 80.1797 25.0973 80.1663C24.6056 80.1523 24.4061 79.5126 24.4351 78.4914C24.4641 77.4702 24.7124 76.389 25.097 75.5103L23.6502 75.4693C23.4154 76.4089 23.1903 77.3394 23.1581 78.4741C23.0918 80.8096 23.9745 81.7148 25.0998 81.7467C26.2628 81.7797 26.7557 80.7527 27.086 78.7843C27.3259 77.3337 27.5284 76.8663 28.0012 76.8797C28.4834 76.8934 28.7569 77.592 28.728 78.6132C28.6987 79.6439 28.4407 80.7343 28.0731 81.6797Z" fill="black"></path> <path d="M30.3813 72.9017L30.6199 71.388L25.3405 70.5558L25.6925 68.3225L24.4311 68.1237L23.4884 74.1039L24.7498 74.3027L25.1019 72.0695L30.3813 72.9017Z" fill="black"></path> <path d="M31.98 65.6292L32.6318 63.613L28.137 60.1418L28.1691 60.0428L33.2545 61.6868L33.7113 60.2737L27.4108 58.2369L26.6222 60.6761L31.1083 64.1743L31.0763 64.2733L25.3914 64.4834L24.5999 66.9317L30.9005 68.9685L31.3573 67.5554L26.2719 65.9113L26.3039 65.8123L31.98 65.6292Z" fill="black"></path> <path d="M28.4374 56.1843L34.3091 59.2452L37.1514 53.7929L36.019 53.2026L33.8851 57.296L32.585 56.6182L34.1285 53.6572L33.0716 53.1063L31.5281 56.0673L30.2782 55.4158L32.3684 51.4062L31.236 50.8159L28.4374 56.1843Z" fill="black"></path> <path d="M32.1851 49.317L37.5562 53.1896L38.3584 52.077L35.0667 49.7036L40.4939 49.1152L41.1301 48.2327L35.7589 44.3602L34.9512 45.4805L38.2276 47.8427L32.8213 48.4346L32.1851 49.317Z" fill="black"></path> <path d="M42.9785 46.235L44.0298 45.12L40.1413 41.4534L41.6923 39.8085L40.7632 38.9324L36.6098 43.337L37.539 44.2132L39.09 42.5683L42.9785 46.235Z" fill="black"></path> <path d="M45.7446 38.9134C47.353 41.1123 49.2856 40.5659 50.5148 39.6667C51.6219 38.8569 52.6306 37.4159 51.6371 35.5291L50.3697 36.4561C50.8649 37.4535 50.448 38.1334 49.7609 38.636C48.9363 39.2392 47.9923 39.3906 46.9814 38.0087C45.9706 36.6268 46.4009 35.7729 47.2254 35.1698C47.9126 34.6671 48.6868 34.4759 49.4873 35.2498L50.7547 34.3227C49.2574 32.8045 47.5785 33.3293 46.4715 34.139C45.2423 35.0382 44.1362 36.7145 45.7446 38.9134Z" fill="black"></path> <path d="M52.0089 34.4252C53.279 36.8353 55.2707 36.5769 56.618 35.8669C57.9653 35.1569 59.3043 33.66 58.0342 31.2499C56.7641 28.8397 54.7724 29.0981 53.4251 29.8081C52.0777 30.5181 50.7387 32.015 52.0089 34.4252ZM53.3646 33.7107C52.5663 32.196 53.1166 31.4141 54.0204 30.9379C54.9242 30.4616 55.8803 30.4496 56.6785 31.9643C57.4767 33.479 56.9264 34.2609 56.0226 34.7372C55.1188 35.2135 54.1628 35.2254 53.3646 33.7107Z" fill="black"></path> <path d="M63.4075 32.766L65.4215 32.1074L65.5856 26.4307L65.6845 26.3984L67.3456 31.4783L68.7571 31.0167L66.6992 24.723L64.2626 25.5197L64.0715 31.2053L63.9726 31.2376L60.4594 26.7633L58.0139 27.563L60.0718 33.8567L61.4834 33.3951L59.8223 28.3152L59.9213 28.2829L63.4075 32.766Z" fill="black"></path> <path d="M72.9726 30.4455L75.0772 30.2002L76.3661 24.6693L76.4695 24.6573L77.088 29.966L78.5631 29.7941L77.7968 23.217L75.2505 23.5136L73.9335 29.0478L73.8301 29.0599L71.2761 23.9767L68.7204 24.2745L69.4867 30.8516L70.9618 30.6797L70.3433 25.3711L70.4467 25.359L72.9726 30.4455Z" fill="black"></path> <path d="M80.0566 23.2657L79.8175 27.1556C79.6846 29.3178 81.3428 30.0926 82.9479 30.1913C84.553 30.2899 86.2937 29.724 86.4266 27.5619L86.6658 23.672L85.1362 23.5779L84.9104 27.2507C84.8228 28.6764 83.9988 28.9764 83.0263 28.9166C82.0538 28.8569 81.2727 28.4582 81.3604 27.0325L81.5862 23.3597L80.0566 23.2657Z" fill="black"></path> <path d="M88.6907 23.978L87.328 30.4579L88.6702 30.7402L89.5054 26.7689L92.2434 31.4916L93.308 31.7155L94.6707 25.2357L93.3192 24.9514L92.4879 28.9041L89.7553 24.2019L88.6907 23.978Z" fill="black"></path> <path d="M96.5025 25.8519L94.4885 32.1599L95.9484 32.6259L97.9623 26.318L96.5025 25.8519Z" fill="black"></path> <path d="M98.6283 33.6215L100.042 34.2131L102.105 29.283L104.191 30.1559L104.684 28.9779L99.0994 26.6404L98.6063 27.8184L100.692 28.6913L98.6283 33.6215Z" fill="black"></path> <path d="M104.986 29.105L104.739 33.862L105.117 34.0772L103.948 36.1327L105.28 36.8905L106.449 34.8351L106.827 35.0503L110.791 32.4077L109.286 31.5516L106.551 33.4891L106.222 33.302L106.491 29.9611L104.986 29.105Z" fill="black"></path> <path d="M111.739 37.0663C109.977 39.1443 110.961 40.8956 112.122 41.8805C113.284 42.8654 115.172 43.5488 116.934 41.4709C118.696 39.3929 117.713 37.6416 116.551 36.6567C115.39 35.6718 113.501 34.9883 111.739 37.0663ZM112.908 38.0573C114.015 36.7514 114.946 36.9701 115.725 37.6308C116.505 38.2914 116.873 39.1739 115.765 40.4798C114.658 41.7858 113.727 41.5671 112.948 40.9064C112.169 40.2457 111.801 39.3633 112.908 38.0573Z" fill="black"></path> <path d="M115.429 44.73L118.628 48.2144L119.569 47.3509L117.406 44.9954L121.344 41.3813L120.308 40.2524L115.429 44.73Z" fill="black"></path> <path d="M119.788 49.8083L120.693 51.0452L125.006 47.8898L126.341 49.7145L127.372 48.9606L123.798 44.0742L122.767 44.8282L124.102 46.6529L119.788 49.8083Z" fill="black"></path> <path d="M123.889 56.1674L124.856 58.0532L130.488 57.3254L130.535 57.4181L125.779 59.8549L126.456 61.1767L132.349 58.1576L131.18 55.876L125.535 56.5786L125.488 56.486L129.356 52.3148L128.183 50.0248L122.289 53.0439L122.967 54.3657L127.723 51.9289L127.771 52.0215L123.889 56.1674Z" fill="black"></path> <path d="M134.282 64.0879L133.533 61.7055L126.456 61.2729L126.938 62.807L128.37 62.8824L129.374 66.0769L128.243 66.9581L128.726 68.4921L134.282 64.0879ZM129.641 62.9491L132.633 63.0992L132.746 63.4601L130.378 65.2954L129.641 62.9491Z" fill="black"></path> <path d="M135.377 68.099L128.837 69.1352L129.051 70.4899L133.059 69.8549L129.623 74.0963L129.793 75.1707L136.333 74.1345L136.117 72.7705L132.127 73.4026L135.547 69.1735L135.377 68.099Z" fill="black"></path> <path d="M129.932 80.6129L129.888 82.1447L135.231 82.2963L135.167 84.5562L136.443 84.5925L136.615 78.5408L135.338 78.5046L135.274 80.7645L129.932 80.6129Z" fill="black"></path> <path d="M129.803 84.6219L129.57 86.1365L132.309 86.5581L132.084 88.0166L129.121 89.0535L128.867 90.699L132.03 89.4917C132.121 90.3288 132.486 91.0646 133.487 91.2185C135.272 91.4934 135.727 89.6587 135.926 88.3685L136.347 85.6291L129.803 84.6219ZM133.45 86.7336L134.852 86.9495L134.697 87.9592C134.541 88.969 134.412 89.8104 133.72 89.7039C133.009 89.5946 133.14 88.7438 133.294 87.7434L133.45 86.7336Z" fill="black"></path> <path d="M134.965 93.6931L131.243 92.5348C129.175 91.891 128.028 93.3171 127.55 94.8526C127.072 96.388 127.207 98.2134 129.275 98.8572L132.997 100.016L133.452 98.5523L129.939 97.4587C128.575 97.0342 128.48 96.1624 128.769 95.2321C129.059 94.3018 129.632 93.6381 130.996 94.0627L134.509 95.1563L134.965 93.6931Z" fill="black"></path> <path d="M127.944 99.5262L126.639 98.8999C126.042 99.6626 125.437 100.464 124.946 101.487C123.935 103.593 124.4 104.897 125.415 105.384C126.464 105.888 127.346 105.231 128.503 103.52C129.334 102.292 129.619 101.915 130.046 102.12C130.489 102.333 130.411 102.998 129.969 103.919C129.527 104.84 128.86 105.727 128.151 106.373L129.456 106.999C130.053 106.236 130.637 105.478 131.128 104.455C132.14 102.348 131.702 101.162 130.687 100.675C129.638 100.172 128.77 100.909 127.667 102.573C126.857 103.8 126.482 104.145 126.056 103.94C125.621 103.731 125.655 102.982 126.097 102.061C126.544 101.131 127.223 100.24 127.944 99.5262Z" fill="black"></path> <path d="M122.177 106.78L121.337 108.061L125.807 110.991L124.568 112.882L125.636 113.582L128.954 108.518L127.886 107.818L126.647 109.709L122.177 106.78Z" fill="black"></path> <path d="M118.339 116.34C118.652 116.63 118.671 117.12 118.376 117.429C113.146 122.909 106.813 127.225 99.7923 130.088C92.533 133.049 84.7139 134.386 76.8832 134.005C69.0526 133.624 61.4001 131.534 54.4624 127.883C47.7528 124.352 41.869 119.442 37.1949 113.479C36.9316 113.143 36.9979 112.658 37.3375 112.4C37.6772 112.141 38.1617 112.207 38.4251 112.543C42.9626 118.327 48.6723 123.089 55.1824 126.515C61.9205 130.062 69.3529 132.091 76.9583 132.461C84.5638 132.831 92.158 131.533 99.2086 128.657C106.021 125.879 112.166 121.693 117.243 116.377C117.538 116.069 118.026 116.05 118.339 116.34Z" fill="black"></path> <path fill-rule="evenodd" clip-rule="evenodd" d="M100.661 65.9438V110.592C97.931 112.42 94.9859 113.885 91.8928 114.96V57.1808H111.218C113.047 59.9092 114.526 62.8526 115.615 65.9573H100.661V65.9438ZM54.8832 48.942C69.0711 37.2759 89.5393 37.2759 103.727 48.942H54.8832ZM83.4338 116.855C80.5156 117.164 77.5704 117.151 74.6656 116.802V57.2077H83.4338V116.855ZM47.406 57.1808H66.2201V114.786C63.1135 113.657 60.1684 112.138 57.4518 110.256V65.9438H43.0084C44.0977 62.8526 45.577 59.8957 47.406 57.1808ZM48.9929 102.273C43.7212 95.5257 40.8567 87.1928 40.8702 78.6314C40.8702 77.0723 40.9643 75.5132 41.1526 73.9676H48.9929V102.273ZM109.107 73.9676H117.471C117.66 75.5132 117.754 77.0723 117.754 78.6314C117.767 87.4885 114.714 96.0633 109.107 102.918V73.9676Z" fill="black"></path> <defs> <radialGradient id="paint0_diamond_455_8547" cx="0" cy="0" r="1" gradientUnits="userSpaceOnUse" gradientTransform="translate(86.1594 16.9704) rotate(63.0057) scale(158.273 228.724)"> <stop offset="0.00815855" stop-color="#E5FF11"></stop> <stop offset="0.979311" stop-color="#96FFBB"></stop> </radialGradient> </defs> </svg> 